<?xml version="1.0" encoding="utf-8"?>
<!-- Generator: Adobe Illustrator 19.0.0, SVG Export Plug-In . SVG Version: 6.00 Build 0)  -->
<svg version="1.1" id="katman_1" xmlns="http://www.w3.org/2000/svg" xmlns:xlink="http://www.w3.org/1999/xlink" x="0px" y="0px"
	 viewBox="0 0 360 108" style="enable-background:new 0 0 360 108;" xml:space="preserve">
<style type="text/css">
	.st0{fill:#97A7B3;stroke:#7E7F9A;stroke-miterlimit:10;}
	.st1{fill:#7E7F9A;}
	.st2{fill:#FFFFFF;}
	.st3{fill:none;}
</style>
<g id="XMLID_354_">
	<path id="XMLID_4_" class="st0" d="M41.5,42.5h67v35h-67c-2.8,0-5-2.2-5-5v-25C36.5,44.7,38.7,42.5,41.5,42.5z"/>
	<rect id="XMLID_7_" x="108.5" y="42.5" class="st0" width="72" height="35"/>
	<rect id="XMLID_8_" x="180.5" y="42.5" class="st0" width="72" height="35"/>
	<path id="XMLID_9_" class="st0" d="M252.5,42.5h66c2.8,0,5,2.2,5,5v25c0,2.8-2.2,5-5,5h-66V42.5z"/>
	<g id="XMLID_950_">
		<path id="XMLID_951_" class="st1" d="M56.5,11.3c0,0.1,0,0.3-0.1,0.4s-0.1,0.3-0.2,0.4s-0.2,0.2-0.3,0.3c-0.1,0.1-0.3,0.2-0.5,0.2
			v0c0.2,0,0.3,0.1,0.5,0.1s0.3,0.2,0.4,0.3c0.1,0.1,0.2,0.2,0.3,0.4s0.1,0.3,0.1,0.6c0,0.3-0.1,0.5-0.2,0.7
			c-0.1,0.2-0.3,0.4-0.5,0.5c-0.2,0.1-0.4,0.2-0.7,0.3s-0.5,0.1-0.8,0.1c-0.1,0-0.2,0-0.3,0c-0.1,0-0.3,0-0.5,0c-0.2,0-0.3,0-0.5,0
			c-0.2,0-0.3,0-0.5-0.1V10c0.1,0,0.2,0,0.3,0c0.1,0,0.3,0,0.4,0s0.3,0,0.5,0s0.3,0,0.5,0c0.3,0,0.5,0,0.8,0.1s0.5,0.1,0.7,0.2
			c0.2,0.1,0.4,0.2,0.5,0.4C56.4,10.8,56.5,11,56.5,11.3z M54.1,12.4c0.1,0,0.2,0,0.3,0s0.2,0,0.2,0c0.2-0.1,0.4-0.2,0.5-0.3
			c0.1-0.1,0.2-0.3,0.2-0.5c0-0.1,0-0.3-0.1-0.3c-0.1-0.1-0.1-0.2-0.2-0.2c-0.1-0.1-0.2-0.1-0.3-0.1c-0.1,0-0.2,0-0.4,0
			c-0.1,0-0.3,0-0.4,0c-0.1,0-0.2,0-0.3,0v1.5H54.1z M54.5,14.8c0.1,0,0.3,0,0.4,0c0.1,0,0.2-0.1,0.3-0.1c0.1-0.1,0.2-0.1,0.2-0.2
			c0.1-0.1,0.1-0.2,0.1-0.4c0-0.2,0-0.3-0.1-0.4c-0.1-0.1-0.2-0.2-0.3-0.2c-0.1-0.1-0.2-0.1-0.4-0.1c-0.1,0-0.3,0-0.4,0h-0.6v1.5
			c0,0,0.1,0,0.1,0s0.1,0,0.2,0c0.1,0,0.1,0,0.2,0C54.3,14.8,54.4,14.8,54.5,14.8z"/>
		<path id="XMLID_955_" class="st1" d="M60.2,14.4h-1.7L58,15.6h-1.1l2-5.6h0.8l2,5.6h-1.2L60.2,14.4z M58.7,13.5h1.2l-0.4-1.2
			l-0.2-0.9h0l-0.2,0.9L58.7,13.5z"/>
		<path id="XMLID_958_" class="st1" d="M64.7,14.1c0-0.2-0.1-0.3-0.2-0.4c-0.1-0.1-0.3-0.2-0.5-0.3s-0.4-0.2-0.6-0.3
			c-0.2-0.1-0.4-0.2-0.6-0.3c-0.2-0.1-0.3-0.3-0.5-0.5c-0.1-0.2-0.2-0.5-0.2-0.8c0-0.3,0-0.5,0.1-0.7c0.1-0.2,0.2-0.4,0.4-0.5
			S63,10,63.2,10c0.2-0.1,0.5-0.1,0.8-0.1c0.3,0,0.6,0,0.9,0.1s0.5,0.1,0.7,0.2l-0.3,0.9c-0.1-0.1-0.3-0.1-0.5-0.2
			c-0.2-0.1-0.5-0.1-0.8-0.1c-0.3,0-0.5,0.1-0.6,0.2c-0.1,0.1-0.2,0.2-0.2,0.4c0,0.2,0.1,0.3,0.2,0.4c0.1,0.1,0.3,0.2,0.5,0.3
			c0.2,0.1,0.4,0.2,0.6,0.3c0.2,0.1,0.4,0.2,0.6,0.3c0.2,0.1,0.3,0.3,0.5,0.5c0.1,0.2,0.2,0.4,0.2,0.7c0,0.5-0.1,0.9-0.4,1.2
			c-0.3,0.3-0.6,0.5-1.1,0.5l-0.1,0.3c0.2,0,0.4,0.1,0.5,0.2s0.2,0.2,0.2,0.4c0,0.1,0,0.2-0.1,0.3c-0.1,0.1-0.1,0.2-0.3,0.2
			c-0.1,0.1-0.2,0.1-0.4,0.1c-0.1,0-0.3,0-0.5,0c-0.2,0-0.3,0-0.5,0l0.1-0.4c0,0,0.1,0,0.1,0c0,0,0.1,0,0.1,0c0.2,0,0.3,0,0.4-0.1
			s0.1-0.1,0.1-0.2c0-0.1-0.2-0.2-0.7-0.3l0.4-0.6c-0.4,0-0.7-0.1-0.9-0.1c-0.3-0.1-0.5-0.1-0.6-0.2l0.4-0.9c0.1,0,0.1,0.1,0.2,0.1
			c0.1,0,0.2,0.1,0.3,0.1c0.1,0,0.2,0.1,0.4,0.1c0.1,0,0.3,0,0.4,0c0.3,0,0.6-0.1,0.7-0.2C64.6,14.5,64.7,14.3,64.7,14.1z"/>
		<path id="XMLID_960_" class="st1" d="M70,15.6h-3.5V10h1.1v4.6H70V15.6z"/>
		<path id="XMLID_962_" class="st1" d="M73.5,14.4h-1.7l-0.4,1.2h-1.1l2-5.6H73l2,5.6h-1.2L73.5,14.4z M72,13.5h1.2l-0.4-1.2
			l-0.2-0.9h0l-0.2,0.9L72,13.5z"/>
		<path id="XMLID_965_" class="st1" d="M76.9,12.7l-0.4-0.9h0l0.1,0.9v2.9h-1V10h0.8l2.1,3l0.4,0.9h0l-0.1-0.9V10h1v5.6H79
			L76.9,12.7z"/>
		<path id="XMLID_967_" class="st1" d="M82.8,12.7h2.1v2.5c-0.2,0.2-0.5,0.3-0.8,0.4c-0.3,0.1-0.6,0.1-0.9,0.1c-0.4,0-0.7-0.1-1-0.2
			c-0.3-0.1-0.6-0.3-0.8-0.5s-0.4-0.5-0.5-0.9c-0.1-0.4-0.2-0.8-0.2-1.3c0-0.5,0.1-1,0.2-1.3c0.2-0.4,0.4-0.7,0.6-0.9
			c0.2-0.2,0.5-0.4,0.8-0.5c0.3-0.1,0.6-0.2,0.9-0.2c0.3,0,0.6,0,0.8,0.1c0.2,0,0.4,0.1,0.6,0.2L84.4,11c-0.1-0.1-0.3-0.1-0.4-0.1
			c-0.2,0-0.4,0-0.6,0c-0.2,0-0.4,0-0.6,0.1s-0.4,0.2-0.5,0.3s-0.3,0.4-0.3,0.6c-0.1,0.2-0.1,0.5-0.1,0.9c0,0.3,0,0.6,0.1,0.9
			s0.2,0.4,0.3,0.6c0.1,0.2,0.3,0.3,0.5,0.3s0.4,0.1,0.6,0.1c0.1,0,0.3,0,0.4-0.1s0.2-0.1,0.3-0.2v-1.1l-1.2-0.1V12.7z"/>
		<path id="XMLID_969_" class="st1" d="M85.8,10h1.1v5.6h-1.1V10z"/>
		<path id="XMLID_971_" class="st1" d="M91.7,15.4c-0.1,0.1-0.3,0.2-0.5,0.2c-0.2,0.1-0.4,0.1-0.7,0.1l-0.1,0.2
			c0.2,0,0.4,0.1,0.5,0.2c0.1,0.1,0.2,0.2,0.2,0.4c0,0.1,0,0.2-0.1,0.3C91,17,90.9,17,90.8,17.1c-0.1,0.1-0.2,0.1-0.4,0.1
			c-0.1,0-0.3,0-0.5,0c-0.2,0-0.3,0-0.5,0l0.1-0.4c0,0,0.1,0,0.1,0c0,0,0.1,0,0.1,0c0.2,0,0.3,0,0.4-0.1c0.1,0,0.1-0.1,0.1-0.2
			c0-0.1-0.2-0.2-0.7-0.3l0.4-0.7c-0.3,0-0.6-0.1-0.8-0.2c-0.3-0.1-0.5-0.3-0.7-0.5c-0.2-0.2-0.3-0.5-0.5-0.9s-0.2-0.8-0.2-1.2
			c0-0.5,0.1-1,0.2-1.4c0.2-0.4,0.3-0.7,0.6-0.9c0.2-0.2,0.5-0.4,0.8-0.5s0.6-0.1,0.9-0.1c0.3,0,0.6,0,0.8,0.1s0.4,0.1,0.5,0.2
			L91.4,11c-0.1-0.1-0.3-0.1-0.4-0.1c-0.2,0-0.4,0-0.6,0c-0.4,0-0.8,0.2-1.1,0.5c-0.3,0.3-0.4,0.8-0.4,1.5c0,0.3,0,0.6,0.1,0.8
			c0.1,0.2,0.2,0.4,0.3,0.6c0.1,0.2,0.3,0.3,0.5,0.4c0.2,0.1,0.4,0.1,0.7,0.1c0.2,0,0.4,0,0.6-0.1c0.2,0,0.3-0.1,0.4-0.2L91.7,15.4z
			"/>
	</g>
	<g id="XMLID_935_">
		<path id="XMLID_936_" class="st1" d="M282.6,11.3c0,0.1,0,0.3-0.1,0.4c0,0.1-0.1,0.3-0.2,0.4c-0.1,0.1-0.2,0.2-0.3,0.3
			c-0.1,0.1-0.3,0.2-0.5,0.2v0c0.2,0,0.3,0.1,0.5,0.1c0.1,0.1,0.3,0.2,0.4,0.3c0.1,0.1,0.2,0.2,0.3,0.4c0.1,0.2,0.1,0.3,0.1,0.6
			c0,0.3-0.1,0.5-0.2,0.7c-0.1,0.2-0.3,0.4-0.5,0.5s-0.4,0.2-0.7,0.3c-0.3,0.1-0.5,0.1-0.8,0.1c-0.1,0-0.2,0-0.3,0
			c-0.1,0-0.3,0-0.5,0c-0.2,0-0.3,0-0.5,0c-0.2,0-0.3,0-0.5-0.1V10c0.1,0,0.2,0,0.3,0s0.3,0,0.4,0s0.3,0,0.5,0s0.3,0,0.5,0
			c0.3,0,0.5,0,0.8,0.1s0.5,0.1,0.7,0.2c0.2,0.1,0.4,0.2,0.5,0.4S282.6,11,282.6,11.3z M280.3,12.4c0.1,0,0.2,0,0.3,0s0.2,0,0.2,0
			c0.2-0.1,0.4-0.2,0.5-0.3c0.1-0.1,0.2-0.3,0.2-0.5c0-0.1,0-0.3-0.1-0.3s-0.1-0.2-0.2-0.2s-0.2-0.1-0.3-0.1c-0.1,0-0.2,0-0.4,0
			c-0.1,0-0.3,0-0.4,0s-0.2,0-0.3,0v1.5H280.3z M280.6,14.8c0.1,0,0.3,0,0.4,0c0.1,0,0.2-0.1,0.3-0.1c0.1-0.1,0.2-0.1,0.2-0.2
			c0.1-0.1,0.1-0.2,0.1-0.4c0-0.2,0-0.3-0.1-0.4c-0.1-0.1-0.2-0.2-0.3-0.2c-0.1-0.1-0.2-0.1-0.4-0.1c-0.1,0-0.3,0-0.4,0h-0.6v1.5
			c0,0,0.1,0,0.1,0s0.1,0,0.2,0c0.1,0,0.1,0,0.2,0C280.5,14.8,280.6,14.8,280.6,14.8z"/>
		<path id="XMLID_940_" class="st1" d="M283.5,9.2c0-0.1,0.1-0.2,0.2-0.3c0.1-0.1,0.3-0.1,0.5-0.1s0.4,0,0.5,0.1
			c0.1,0.1,0.2,0.2,0.2,0.3c0,0.1-0.1,0.3-0.2,0.4c-0.1,0.1-0.3,0.1-0.5,0.1s-0.4,0-0.5-0.1C283.6,9.5,283.5,9.3,283.5,9.2z
			 M283.7,10h1.1v5.6h-1.1V10z"/>
		<path id="XMLID_943_" class="st1" d="M289.8,11h-1.6v4.6h-1.1V11h-1.6v-1h4.4V11z"/>
		<path id="XMLID_945_" class="st1" d="M290.4,9.2c0-0.1,0.1-0.2,0.2-0.3c0.1-0.1,0.3-0.1,0.5-0.1c0.2,0,0.4,0,0.5,0.1
			c0.1,0.1,0.2,0.2,0.2,0.3c0,0.1-0.1,0.3-0.2,0.4c-0.1,0.1-0.3,0.1-0.5,0.1c-0.2,0-0.4,0-0.5-0.1C290.4,9.5,290.4,9.3,290.4,9.2z
			 M290.5,10h1.1v5.6h-1.1V10z"/>
		<path id="XMLID_948_" class="st1" d="M295.1,14.1c0-0.2-0.1-0.3-0.2-0.4c-0.1-0.1-0.3-0.2-0.5-0.3s-0.4-0.2-0.6-0.3
			c-0.2-0.1-0.4-0.2-0.6-0.3c-0.2-0.1-0.3-0.3-0.5-0.5c-0.1-0.2-0.2-0.5-0.2-0.8c0-0.3,0-0.5,0.1-0.7c0.1-0.2,0.2-0.4,0.4-0.5
			s0.4-0.2,0.6-0.3c0.2-0.1,0.5-0.1,0.8-0.1c0.3,0,0.6,0,0.9,0.1s0.5,0.1,0.7,0.2l-0.3,0.9c-0.1-0.1-0.3-0.1-0.5-0.2
			c-0.2-0.1-0.5-0.1-0.8-0.1c-0.3,0-0.5,0.1-0.6,0.2c-0.1,0.1-0.2,0.2-0.2,0.4c0,0.2,0.1,0.3,0.2,0.4c0.1,0.1,0.3,0.2,0.5,0.3
			s0.4,0.2,0.6,0.3c0.2,0.1,0.4,0.2,0.6,0.3c0.2,0.1,0.3,0.3,0.5,0.5c0.1,0.2,0.2,0.4,0.2,0.7c0,0.5-0.1,0.9-0.4,1.2
			c-0.3,0.3-0.6,0.5-1.1,0.5l-0.1,0.3c0.2,0,0.4,0.1,0.5,0.2c0.1,0.1,0.2,0.2,0.2,0.4c0,0.1,0,0.2-0.1,0.3c-0.1,0.1-0.1,0.2-0.3,0.2
			c-0.1,0.1-0.2,0.1-0.4,0.1c-0.1,0-0.3,0-0.5,0s-0.3,0-0.5,0l0.1-0.4c0,0,0.1,0,0.1,0s0.1,0,0.1,0c0.2,0,0.3,0,0.4-0.1
			s0.1-0.1,0.1-0.2c0-0.1-0.2-0.2-0.7-0.3l0.4-0.6c-0.4,0-0.7-0.1-0.9-0.1c-0.3-0.1-0.5-0.1-0.6-0.2l0.4-0.9c0.1,0,0.1,0.1,0.2,0.1
			c0.1,0,0.2,0.1,0.3,0.1c0.1,0,0.2,0.1,0.4,0.1c0.1,0,0.3,0,0.4,0c0.3,0,0.6-0.1,0.7-0.2C295,14.5,295.1,14.3,295.1,14.1z"/>
	</g>
	<g id="XMLID_904_">
		<path id="XMLID_905_" class="st2" d="M46.3,60.5c0-0.8,0.2-1.5,0.6-2c0.4-0.5,1-0.7,1.7-0.7c0.4,0,0.7,0.1,1,0.2
			c0.3,0.1,0.5,0.3,0.7,0.5s0.3,0.5,0.4,0.8s0.1,0.7,0.1,1.1c0,0.8-0.2,1.5-0.6,2c-0.4,0.5-1,0.7-1.7,0.7c-0.4,0-0.7-0.1-1-0.2
			c-0.3-0.1-0.5-0.3-0.7-0.5c-0.2-0.2-0.3-0.5-0.4-0.8S46.3,60.9,46.3,60.5z M47.6,60.5c0,0.2,0,0.4,0.1,0.6c0,0.2,0.1,0.4,0.2,0.5
			c0.1,0.1,0.2,0.2,0.3,0.3c0.1,0.1,0.3,0.1,0.5,0.1c0.3,0,0.6-0.1,0.8-0.4c0.2-0.2,0.3-0.6,0.3-1.2c0-0.5-0.1-0.8-0.2-1.1
			C49.2,59.1,49,59,48.6,59c-0.3,0-0.6,0.1-0.8,0.4S47.6,60,47.6,60.5z"/>
		<path id="XMLID_908_" class="st2" d="M54.6,59.2c-0.2-0.1-0.4-0.1-0.6-0.1c-0.2,0-0.4,0.1-0.6,0.2s-0.3,0.3-0.3,0.5V63h-1.3v-5h1
			l0.1,0.7h0c0.1-0.2,0.3-0.4,0.5-0.6c0.2-0.1,0.4-0.2,0.7-0.2c0.2,0,0.4,0,0.6,0.1L54.6,59.2z"/>
		<path id="XMLID_910_" class="st2" d="M58.4,63v-2.8c0-0.4-0.1-0.7-0.2-0.9c-0.1-0.2-0.3-0.3-0.6-0.3c-0.2,0-0.5,0.1-0.6,0.2
			c-0.2,0.1-0.3,0.3-0.4,0.5V63h-1.3v-5h1l0.1,0.7h0c0.2-0.2,0.4-0.4,0.6-0.6s0.6-0.2,1-0.2c0.2,0,0.5,0,0.7,0.1
			c0.2,0.1,0.4,0.2,0.5,0.3s0.2,0.4,0.3,0.6c0.1,0.3,0.1,0.6,0.1,1V63H58.4z"/>
		<path id="XMLID_912_" class="st2" d="M64.8,62.6c-0.2,0.2-0.5,0.3-0.8,0.4c-0.3,0.1-0.7,0.2-1.1,0.2c-0.8,0-1.4-0.2-1.8-0.7
			c-0.4-0.5-0.6-1.1-0.6-1.9c0-0.9,0.2-1.5,0.6-2c0.4-0.4,1-0.7,1.8-0.7c0.3,0,0.5,0,0.7,0.1c0.2,0.1,0.5,0.2,0.6,0.3
			s0.3,0.4,0.5,0.6s0.2,0.6,0.2,1c0,0.1,0,0.3,0,0.5s0,0.3-0.1,0.5h-3c0,0.4,0.1,0.7,0.3,0.9c0.2,0.2,0.5,0.3,1,0.3
			c0.3,0,0.5,0,0.7-0.1c0.2-0.1,0.4-0.2,0.5-0.3L64.8,62.6z M63,58.9c-0.3,0-0.6,0.1-0.8,0.3S62,59.7,61.9,60h1.9
			c0-0.4,0-0.6-0.2-0.8S63.3,58.9,63,58.9z"/>
		<path id="XMLID_915_" class="st2" d="M67.6,60.9h-0.4V63h-1.3v-7h1.3v4.1l0.3-0.1l1.1-2h1.4l-1.2,1.9l-0.5,0.4l0.6,0.4l1.4,2.3
			h-1.5L67.6,60.9z"/>
		<path id="XMLID_917_" class="st2" d="M70.8,56c0.1,0,0.3,0,0.5,0c0.2,0,0.4,0,0.5,0c0.2,0,0.4,0,0.5,0c0.2,0,0.3,0,0.5,0
			c0.6,0,1.1,0.1,1.6,0.3s0.8,0.4,1.1,0.7c0.3,0.3,0.5,0.7,0.6,1.1s0.2,0.9,0.2,1.4c0,0.5-0.1,0.9-0.2,1.4c-0.1,0.4-0.3,0.8-0.6,1.2
			c-0.3,0.3-0.6,0.6-1.1,0.8c-0.5,0.2-1,0.3-1.7,0.3c-0.1,0-0.2,0-0.4,0c-0.2,0-0.4,0-0.5,0c-0.2,0-0.4,0-0.5,0c-0.2,0-0.3,0-0.4,0
			V56z M73,57.1c-0.1,0-0.3,0-0.4,0c-0.2,0-0.3,0-0.3,0v4.7c0,0,0.1,0,0.1,0s0.1,0,0.2,0c0.1,0,0.1,0,0.2,0c0.1,0,0.1,0,0.1,0
			c0.4,0,0.7-0.1,1-0.2c0.3-0.1,0.5-0.3,0.6-0.5s0.3-0.5,0.3-0.8s0.1-0.6,0.1-0.9c0-0.3,0-0.5-0.1-0.8c-0.1-0.3-0.2-0.5-0.3-0.7
			s-0.3-0.4-0.6-0.5S73.4,57.1,73,57.1z"/>
		<path id="XMLID_920_" class="st2" d="M77.2,56.6c0-0.2,0.1-0.4,0.2-0.5c0.1-0.1,0.3-0.2,0.6-0.2s0.5,0.1,0.6,0.2s0.2,0.3,0.2,0.5
			s-0.1,0.4-0.2,0.5s-0.4,0.2-0.6,0.2s-0.5-0.1-0.6-0.2C77.3,56.9,77.2,56.8,77.2,56.6z M77.4,58h1.3v5h-1.3V58z"/>
		<path id="XMLID_923_" class="st2" d="M79.7,61.9l2-2.4l0.5-0.4h-2.5V58h3.9v1.1l-2,2.4l-0.5,0.4h2.5V63h-3.9V61.9z"/>
		<path id="XMLID_925_" class="st2" d="M84.5,56.6c0-0.2,0.1-0.4,0.2-0.5c0.1-0.1,0.3-0.2,0.6-0.2s0.5,0.1,0.6,0.2s0.2,0.3,0.2,0.5
			s-0.1,0.4-0.2,0.5s-0.4,0.2-0.6,0.2s-0.5-0.1-0.6-0.2C84.5,56.9,84.5,56.8,84.5,56.6z M84.7,58H86v5h-1.3V58z"/>
		<path id="XMLID_928_" class="st2" d="M87.3,56h2.4v1.1h-1.1v7.1h1.1v1.1h-2.4V56z"/>
		<path id="XMLID_930_" class="st2" d="M90.3,59.5c0-1.2,0.2-2.1,0.6-2.7c0.4-0.6,1-0.9,1.8-0.9c0.8,0,1.5,0.3,1.9,0.9
			c0.4,0.6,0.6,1.5,0.6,2.7c0,1.2-0.2,2.2-0.6,2.8s-1,0.9-1.8,0.9c-0.8,0-1.4-0.3-1.8-0.9C90.5,61.6,90.3,60.7,90.3,59.5z
			 M91.6,59.5c0,0.8,0.1,1.4,0.3,1.9s0.5,0.7,0.9,0.7c0.4,0,0.7-0.2,0.9-0.6c0.2-0.4,0.3-1.1,0.3-1.9c0-0.8-0.1-1.4-0.3-1.9
			c-0.2-0.4-0.5-0.7-0.9-0.7c-0.4,0-0.7,0.2-0.9,0.6S91.6,58.6,91.6,59.5z"/>
		<path id="XMLID_933_" class="st2" d="M98.2,65.3h-2.4v-1.1H97v-7.1h-1.1V56h2.4V65.3z"/>
	</g>
	<g id="XMLID_874_">
		<path id="XMLID_875_" class="st2" d="M118.4,60.5c0-0.8,0.2-1.5,0.6-2c0.4-0.5,1-0.7,1.7-0.7c0.4,0,0.7,0.1,1,0.2
			c0.3,0.1,0.5,0.3,0.7,0.5s0.3,0.5,0.4,0.8s0.1,0.7,0.1,1.1c0,0.8-0.2,1.5-0.6,2c-0.4,0.5-1,0.7-1.7,0.7c-0.4,0-0.7-0.1-1-0.2
			c-0.3-0.1-0.5-0.3-0.7-0.5c-0.2-0.2-0.3-0.5-0.4-0.8S118.4,60.9,118.4,60.5z M119.7,60.5c0,0.2,0,0.4,0.1,0.6
			c0,0.2,0.1,0.4,0.2,0.5c0.1,0.1,0.2,0.2,0.3,0.3c0.1,0.1,0.3,0.1,0.5,0.1c0.3,0,0.6-0.1,0.8-0.4c0.2-0.2,0.3-0.6,0.3-1.2
			c0-0.5-0.1-0.8-0.2-1.1c-0.2-0.3-0.4-0.4-0.8-0.4c-0.3,0-0.6,0.1-0.8,0.4S119.7,60,119.7,60.5z"/>
		<path id="XMLID_878_" class="st2" d="M126.8,59.2c-0.2-0.1-0.4-0.1-0.6-0.1c-0.2,0-0.4,0.1-0.6,0.2s-0.3,0.3-0.3,0.5V63H124v-5h1
			l0.1,0.7h0c0.1-0.2,0.3-0.4,0.5-0.6c0.2-0.1,0.4-0.2,0.7-0.2c0.2,0,0.4,0,0.6,0.1L126.8,59.2z"/>
		<path id="XMLID_880_" class="st2" d="M130.6,63v-2.8c0-0.4-0.1-0.7-0.2-0.9c-0.1-0.2-0.3-0.3-0.6-0.3c-0.2,0-0.5,0.1-0.6,0.2
			c-0.2,0.1-0.3,0.3-0.4,0.5V63h-1.3v-5h1l0.1,0.7h0c0.2-0.2,0.4-0.4,0.6-0.6s0.6-0.2,1-0.2c0.2,0,0.5,0,0.7,0.1
			c0.2,0.1,0.4,0.2,0.5,0.3s0.2,0.4,0.3,0.6c0.1,0.3,0.1,0.6,0.1,1V63H130.6z"/>
		<path id="XMLID_882_" class="st2" d="M136.9,62.6c-0.2,0.2-0.5,0.3-0.8,0.4c-0.3,0.1-0.7,0.2-1.1,0.2c-0.8,0-1.4-0.2-1.8-0.7
			c-0.4-0.5-0.6-1.1-0.6-1.9c0-0.9,0.2-1.5,0.6-2c0.4-0.4,1-0.7,1.8-0.7c0.3,0,0.5,0,0.7,0.1c0.2,0.1,0.5,0.2,0.6,0.3
			c0.2,0.2,0.3,0.4,0.4,0.6s0.2,0.6,0.2,1c0,0.1,0,0.3,0,0.5s0,0.3-0.1,0.5h-3c0,0.4,0.1,0.7,0.3,0.9c0.2,0.2,0.5,0.3,1,0.3
			c0.3,0,0.5,0,0.7-0.1c0.2-0.1,0.4-0.2,0.5-0.3L136.9,62.6z M135.1,58.9c-0.3,0-0.6,0.1-0.8,0.3s-0.3,0.5-0.3,0.8h1.9
			c0-0.4,0-0.6-0.2-0.8S135.4,58.9,135.1,58.9z"/>
		<path id="XMLID_885_" class="st2" d="M139.7,60.9h-0.3V63H138v-7h1.3v4.1l0.3-0.1l1.1-2h1.4l-1.2,1.9l-0.5,0.4l0.5,0.4l1.4,2.3
			h-1.5L139.7,60.9z"/>
		<path id="XMLID_887_" class="st2" d="M143,56c0.1,0,0.3,0,0.5,0c0.2,0,0.4,0,0.5,0c0.2,0,0.4,0,0.5,0c0.2,0,0.3,0,0.5,0
			c0.6,0,1.2,0.1,1.6,0.3c0.4,0.2,0.8,0.4,1.1,0.7c0.3,0.3,0.5,0.7,0.6,1.1c0.1,0.4,0.2,0.9,0.2,1.4c0,0.5-0.1,0.9-0.2,1.4
			c-0.1,0.4-0.3,0.8-0.6,1.2c-0.3,0.3-0.6,0.6-1.1,0.8c-0.5,0.2-1,0.3-1.7,0.3c-0.1,0-0.2,0-0.4,0c-0.2,0-0.4,0-0.5,0
			c-0.2,0-0.4,0-0.5,0c-0.2,0-0.3,0-0.4,0V56z M145.1,57.1c-0.1,0-0.3,0-0.4,0c-0.2,0-0.3,0-0.3,0v4.7c0,0,0.1,0,0.1,0
			c0.1,0,0.1,0,0.2,0c0.1,0,0.1,0,0.2,0c0.1,0,0.1,0,0.1,0c0.4,0,0.7-0.1,1-0.2s0.5-0.3,0.6-0.5s0.3-0.5,0.3-0.8
			c0.1-0.3,0.1-0.6,0.1-0.9c0-0.3,0-0.5-0.1-0.8c-0.1-0.3-0.2-0.5-0.3-0.7c-0.1-0.2-0.3-0.4-0.6-0.5
			C145.8,57.2,145.5,57.1,145.1,57.1z"/>
		<path id="XMLID_890_" class="st2" d="M149.3,56.6c0-0.2,0.1-0.4,0.2-0.5c0.1-0.1,0.3-0.2,0.6-0.2s0.5,0.1,0.6,0.2s0.2,0.3,0.2,0.5
			s-0.1,0.4-0.2,0.5s-0.4,0.2-0.6,0.2s-0.5-0.1-0.6-0.2C149.4,56.9,149.3,56.8,149.3,56.6z M149.5,58h1.3v5h-1.3V58z"/>
		<path id="XMLID_893_" class="st2" d="M151.8,61.9l2-2.4l0.5-0.4h-2.5V58h3.9v1.1l-2,2.4l-0.5,0.4h2.5V63h-3.9V61.9z"/>
		<path id="XMLID_895_" class="st2" d="M156.6,56.6c0-0.2,0.1-0.4,0.2-0.5c0.1-0.1,0.3-0.2,0.6-0.2c0.3,0,0.5,0.1,0.6,0.2
			c0.2,0.1,0.2,0.3,0.2,0.5s-0.1,0.4-0.2,0.5c-0.2,0.1-0.4,0.2-0.6,0.2c-0.3,0-0.5-0.1-0.6-0.2C156.7,56.9,156.6,56.8,156.6,56.6z
			 M156.8,58h1.3v5h-1.3V58z"/>
		<path id="XMLID_898_" class="st2" d="M159.4,56h2.3v1.1h-1.1v7.1h1.1v1.1h-2.3V56z"/>
		<path id="XMLID_900_" class="st2" d="M163,61.9h1.4v-4l0.2-0.7l-0.5,0.6l-0.9,0.6l-0.5-0.8l2.3-1.8h0.7v6h1.4V63h-4V61.9z"/>
		<path id="XMLID_902_" class="st2" d="M170.3,65.3H168v-1.1h1.1v-7.1H168V56h2.3V65.3z"/>
	</g>
	<g id="XMLID_867_">
		<path id="XMLID_868_" class="st2" d="M209.9,62.3c0-0.2,0.1-0.4,0.2-0.6s0.3-0.2,0.6-0.2c0.3,0,0.5,0.1,0.6,0.2s0.2,0.3,0.2,0.6
			c0,0.2-0.1,0.4-0.2,0.6c-0.1,0.1-0.3,0.2-0.6,0.2c-0.2,0-0.4-0.1-0.6-0.2C210,62.8,209.9,62.6,209.9,62.3z"/>
		<path id="XMLID_870_" class="st2" d="M216,62.3c0-0.2,0.1-0.4,0.2-0.6c0.1-0.1,0.3-0.2,0.6-0.2c0.3,0,0.5,0.1,0.6,0.2
			c0.1,0.1,0.2,0.3,0.2,0.6c0,0.2-0.1,0.4-0.2,0.6c-0.1,0.1-0.3,0.2-0.6,0.2c-0.2,0-0.4-0.1-0.6-0.2C216.1,62.8,216,62.6,216,62.3z"
			/>
		<path id="XMLID_872_" class="st2" d="M222.2,62.3c0-0.2,0.1-0.4,0.2-0.6c0.1-0.1,0.3-0.2,0.6-0.2c0.3,0,0.5,0.1,0.6,0.2
			s0.2,0.3,0.2,0.6c0,0.2-0.1,0.4-0.2,0.6c-0.1,0.1-0.3,0.2-0.6,0.2c-0.2,0-0.4-0.1-0.6-0.2C222.2,62.8,222.2,62.6,222.2,62.3z"/>
	</g>
	<g id="XMLID_833_">
		<path id="XMLID_834_" class="st2" d="M257.4,60.5c0-0.8,0.2-1.5,0.6-2s1-0.7,1.7-0.7c0.4,0,0.7,0.1,1,0.2c0.3,0.1,0.5,0.3,0.7,0.5
			s0.3,0.5,0.4,0.8c0.1,0.3,0.1,0.7,0.1,1.1c0,0.8-0.2,1.5-0.6,2c-0.4,0.5-1,0.7-1.7,0.7c-0.4,0-0.7-0.1-1-0.2
			c-0.3-0.1-0.5-0.3-0.7-0.5s-0.3-0.5-0.4-0.8C257.4,61.3,257.4,60.9,257.4,60.5z M258.7,60.5c0,0.2,0,0.4,0.1,0.6
			c0,0.2,0.1,0.4,0.2,0.5c0.1,0.1,0.2,0.2,0.3,0.3c0.1,0.1,0.3,0.1,0.5,0.1c0.3,0,0.6-0.1,0.8-0.4s0.3-0.6,0.3-1.2
			c0-0.5-0.1-0.8-0.2-1.1c-0.2-0.3-0.4-0.4-0.8-0.4c-0.3,0-0.6,0.1-0.8,0.4C258.8,59.6,258.7,60,258.7,60.5z"/>
		<path id="XMLID_837_" class="st2" d="M265.7,59.2c-0.2-0.1-0.4-0.1-0.6-0.1c-0.2,0-0.4,0.1-0.6,0.2c-0.2,0.1-0.3,0.3-0.3,0.5V63
			H263v-5h1l0.1,0.7h0c0.1-0.2,0.3-0.4,0.5-0.6c0.2-0.1,0.4-0.2,0.7-0.2c0.2,0,0.4,0,0.6,0.1L265.7,59.2z"/>
		<path id="XMLID_839_" class="st2" d="M269.5,63v-2.8c0-0.4-0.1-0.7-0.2-0.9c-0.1-0.2-0.3-0.3-0.6-0.3c-0.2,0-0.5,0.1-0.6,0.2
			c-0.2,0.1-0.3,0.3-0.4,0.5V63h-1.3v-5h1l0.1,0.7h0c0.2-0.2,0.4-0.4,0.6-0.6c0.3-0.2,0.6-0.2,1-0.2c0.2,0,0.5,0,0.7,0.1
			c0.2,0.1,0.4,0.2,0.5,0.3c0.1,0.2,0.2,0.4,0.3,0.6c0.1,0.3,0.1,0.6,0.1,1V63H269.5z"/>
		<path id="XMLID_841_" class="st2" d="M275.9,62.6c-0.2,0.2-0.5,0.3-0.8,0.4c-0.3,0.1-0.7,0.2-1.1,0.2c-0.8,0-1.4-0.2-1.8-0.7
			c-0.4-0.5-0.6-1.1-0.6-1.9c0-0.9,0.2-1.5,0.6-2c0.4-0.4,1-0.7,1.8-0.7c0.3,0,0.5,0,0.7,0.1c0.2,0.1,0.5,0.2,0.6,0.3
			c0.2,0.2,0.3,0.4,0.5,0.6s0.2,0.6,0.2,1c0,0.1,0,0.3,0,0.5s0,0.3-0.1,0.5h-3c0,0.4,0.1,0.7,0.3,0.9c0.2,0.2,0.5,0.3,1,0.3
			c0.3,0,0.5,0,0.7-0.1c0.2-0.1,0.4-0.2,0.5-0.3L275.9,62.6z M274.1,58.9c-0.3,0-0.6,0.1-0.8,0.3c-0.2,0.2-0.3,0.5-0.3,0.8h1.8
			c0-0.4,0-0.6-0.2-0.8C274.6,59,274.4,58.9,274.1,58.9z"/>
		<path id="XMLID_844_" class="st2" d="M278.7,60.9h-0.4V63H277v-7h1.3v4.1l0.3-0.1l1.1-2h1.4l-1.2,1.9l-0.5,0.4l0.6,0.4l1.3,2.3
			h-1.5L278.7,60.9z"/>
		<path id="XMLID_846_" class="st2" d="M281.9,56c0.1,0,0.3,0,0.5,0c0.2,0,0.4,0,0.5,0c0.2,0,0.4,0,0.5,0c0.2,0,0.3,0,0.5,0
			c0.6,0,1.1,0.1,1.6,0.3c0.4,0.2,0.8,0.4,1.1,0.7c0.3,0.3,0.5,0.7,0.6,1.1c0.1,0.4,0.2,0.9,0.2,1.4c0,0.5-0.1,0.9-0.2,1.4
			c-0.1,0.4-0.3,0.8-0.6,1.2c-0.3,0.3-0.6,0.6-1.1,0.8s-1,0.3-1.7,0.3c-0.1,0-0.2,0-0.4,0c-0.2,0-0.4,0-0.5,0c-0.2,0-0.4,0-0.5,0
			c-0.2,0-0.3,0-0.4,0V56z M284.1,57.1c-0.1,0-0.3,0-0.4,0s-0.3,0-0.3,0v4.7c0,0,0.1,0,0.1,0c0.1,0,0.1,0,0.2,0c0.1,0,0.1,0,0.2,0
			c0.1,0,0.1,0,0.2,0c0.4,0,0.7-0.1,1-0.2c0.3-0.1,0.5-0.3,0.6-0.5s0.3-0.5,0.3-0.8c0.1-0.3,0.1-0.6,0.1-0.9c0-0.3,0-0.5-0.1-0.8
			c-0.1-0.3-0.2-0.5-0.3-0.7c-0.1-0.2-0.3-0.4-0.6-0.5C284.8,57.2,284.5,57.1,284.1,57.1z"/>
		<path id="XMLID_849_" class="st2" d="M288.3,56.6c0-0.2,0.1-0.4,0.2-0.5s0.3-0.2,0.6-0.2s0.5,0.1,0.6,0.2s0.2,0.3,0.2,0.5
			s-0.1,0.4-0.2,0.5s-0.4,0.2-0.6,0.2s-0.5-0.1-0.6-0.2S288.3,56.8,288.3,56.6z M288.5,58h1.3v5h-1.3V58z"/>
		<path id="XMLID_852_" class="st2" d="M290.8,61.9l2-2.4l0.5-0.4h-2.5V58h3.9v1.1l-2,2.4l-0.5,0.4h2.5V63h-3.9V61.9z"/>
		<path id="XMLID_854_" class="st2" d="M295.6,56.6c0-0.2,0.1-0.4,0.2-0.5c0.1-0.1,0.3-0.2,0.6-0.2c0.3,0,0.5,0.1,0.6,0.2
			c0.2,0.1,0.2,0.3,0.2,0.5s-0.1,0.4-0.2,0.5c-0.2,0.1-0.4,0.2-0.6,0.2c-0.3,0-0.5-0.1-0.6-0.2C295.6,56.9,295.6,56.8,295.6,56.6z
			 M295.8,58h1.3v5h-1.3V58z"/>
		<path id="XMLID_857_" class="st2" d="M298.4,56h2.4v1.1h-1.1v7.1h1.1v1.1h-2.4V56z"/>
		<path id="XMLID_859_" class="st2" d="M304.6,63v-2.8c0-0.4-0.1-0.7-0.2-0.9c-0.1-0.2-0.3-0.3-0.6-0.3c-0.2,0-0.5,0.1-0.6,0.2
			c-0.2,0.1-0.3,0.3-0.4,0.5V63h-1.3v-5h1l0.2,0.7h0c0.2-0.2,0.4-0.4,0.6-0.6s0.6-0.2,1-0.2c0.2,0,0.5,0,0.7,0.1
			c0.2,0.1,0.4,0.2,0.5,0.3s0.2,0.4,0.3,0.6c0.1,0.3,0.1,0.6,0.1,1V63H304.6z"/>
		<path id="XMLID_861_" class="st2" d="M307,59.5h2.5v1.2H307V59.5z"/>
		<path id="XMLID_863_" class="st2" d="M311.1,61.9h1.4v-4l0.2-0.7l-0.5,0.6l-0.9,0.6l-0.6-0.8l2.3-1.8h0.7v6h1.4V63h-4V61.9z"/>
		<path id="XMLID_865_" class="st2" d="M318.4,65.3H316v-1.1h1.1v-7.1H316V56h2.3V65.3z"/>
	</g>
	<rect id="XMLID_471_" x="70.4" y="21.3" class="st1" width="4.7" height="15.3"/>
	<polygon id="XMLID_480_" class="st1" points="72.6,39.7 66.2,33.4 79,33.3 	"/>
	<line id="XMLID_478_" class="st3" x1="66.2" y1="33.4" x2="79" y2="33.3"/>
	<rect id="XMLID_26_" x="285.4" y="21.3" class="st1" width="4.7" height="15.3"/>
	<polygon id="XMLID_25_" class="st1" points="287.6,39.7 281.2,33.4 294,33.3 	"/>
	<line id="XMLID_24_" class="st3" x1="281.2" y1="33.4" x2="294" y2="33.3"/>
	<g id="XMLID_766_">
		<path id="XMLID_767_" class="st1" d="M239,82.8l0.2,0.3l0.1,0.4l0.1-0.4l0.2-0.3l0.4,0.2l-0.2,0.4l-0.3,0.3l0.5-0.1h0.4v0.5H240
			l-0.4-0.1l0.4,0.3l0.2,0.3l-0.4,0.3l-0.2-0.3l-0.1-0.4l-0.1,0.4l-0.2,0.3l-0.4-0.3l0.2-0.3l0.3-0.3l-0.4,0.1h-0.4v-0.5h0.4
			l0.4,0.1l-0.4-0.3l-0.2-0.4L239,82.8z"/>
		<path id="XMLID_769_" class="st1" d="M243.2,87.9v-2c0-0.3,0-0.5-0.1-0.6c-0.1-0.1-0.2-0.2-0.4-0.2c-0.2,0-0.3,0-0.4,0.2
			s-0.2,0.2-0.3,0.4v2.3H241v-3.5h0.7l0.1,0.5h0c0.1-0.1,0.3-0.3,0.4-0.4c0.2-0.1,0.4-0.2,0.7-0.2c0.2,0,0.3,0,0.5,0.1
			c0.1,0,0.2,0.1,0.3,0.2s0.2,0.3,0.2,0.4s0.1,0.4,0.1,0.7v2.2H243.2z"/>
		<path id="XMLID_771_" class="st1" d="M245.1,84.9c0-0.2,0.1-0.3,0.2-0.4s0.2-0.1,0.4-0.1c0.2,0,0.3,0,0.4,0.1s0.2,0.2,0.2,0.4
			s-0.1,0.3-0.2,0.4c-0.1,0.1-0.2,0.1-0.4,0.1c-0.2,0-0.3,0-0.4-0.1C245.2,85.2,245.1,85.1,245.1,84.9z M245.1,87.4
			c0-0.2,0.1-0.3,0.2-0.4s0.2-0.1,0.4-0.1c0.2,0,0.3,0,0.4,0.1s0.2,0.2,0.2,0.4s-0.1,0.3-0.2,0.4c-0.1,0.1-0.2,0.1-0.4,0.1
			c-0.2,0-0.3,0-0.4-0.1C245.2,87.7,245.1,87.6,245.1,87.4z"/>
		<path id="XMLID_774_" class="st1" d="M248.5,83c0.1,0,0.2,0,0.3,0c0.1,0,0.3,0,0.4,0s0.3,0,0.4,0c0.1,0,0.2,0,0.3,0
			c0.4,0,0.8,0.1,1.1,0.2s0.6,0.3,0.7,0.5c0.2,0.2,0.3,0.5,0.4,0.8c0.1,0.3,0.1,0.6,0.1,1c0,0.3,0,0.7-0.1,1
			c-0.1,0.3-0.2,0.6-0.4,0.8c-0.2,0.2-0.5,0.4-0.8,0.6s-0.7,0.2-1.2,0.2c-0.1,0-0.2,0-0.3,0c-0.1,0-0.3,0-0.4,0s-0.3,0-0.4,0
			c-0.1,0-0.2,0-0.3,0V83z M250,83.8c-0.1,0-0.2,0-0.3,0c-0.1,0-0.2,0-0.2,0v3.3c0,0,0,0,0.1,0c0,0,0.1,0,0.1,0c0.1,0,0.1,0,0.1,0
			c0,0,0.1,0,0.1,0c0.3,0,0.5,0,0.7-0.1c0.2-0.1,0.3-0.2,0.4-0.4c0.1-0.2,0.2-0.3,0.2-0.5s0.1-0.4,0.1-0.6c0-0.2,0-0.4-0.1-0.6
			c0-0.2-0.1-0.4-0.2-0.5c-0.1-0.2-0.2-0.3-0.4-0.4C250.5,83.8,250.3,83.8,250,83.8z"/>
		<path id="XMLID_777_" class="st1" d="M253,83.4c0-0.1,0.1-0.3,0.2-0.3c0.1-0.1,0.2-0.1,0.4-0.1c0.2,0,0.3,0,0.4,0.1
			c0.1,0.1,0.2,0.2,0.2,0.3c0,0.1-0.1,0.2-0.2,0.3c-0.1,0.1-0.3,0.1-0.4,0.1c-0.2,0-0.3,0-0.4-0.1C253,83.7,253,83.5,253,83.4z
			 M253.1,84.4h0.9v3.5h-0.9V84.4z"/>
		<path id="XMLID_780_" class="st1" d="M254.7,87.1l1.4-1.7l0.4-0.3h-1.7v-0.8h2.7v0.8l-1.4,1.7l-0.3,0.3h1.7v0.8h-2.7V87.1z"/>
		<path id="XMLID_782_" class="st1" d="M258.1,83.4c0-0.1,0.1-0.3,0.2-0.3c0.1-0.1,0.2-0.1,0.4-0.1c0.2,0,0.3,0,0.4,0.1
			c0.1,0.1,0.2,0.2,0.2,0.3c0,0.1-0.1,0.2-0.2,0.3c-0.1,0.1-0.3,0.1-0.4,0.1c-0.2,0-0.3,0-0.4-0.1C258.1,83.7,258.1,83.5,258.1,83.4
			z M258.2,84.4h0.9v3.5h-0.9V84.4z"/>
		<path id="XMLID_785_" class="st1" d="M263,86.7c0,0.2,0,0.4,0,0.6c0,0.2,0,0.4,0.1,0.7h-0.7l-0.1-0.5h0c-0.1,0.2-0.2,0.3-0.4,0.4
			c-0.2,0.1-0.4,0.2-0.6,0.2c-0.4,0-0.8-0.1-1-0.4c-0.2-0.3-0.4-0.7-0.4-1.4c0-0.6,0.1-1.1,0.4-1.4s0.7-0.5,1.2-0.5
			c0.1,0,0.3,0,0.4,0c0.1,0,0.2,0,0.3,0.1V83h0.9V86.7z M261.4,87.2c0.2,0,0.3,0,0.4-0.1c0.1-0.1,0.2-0.2,0.2-0.4v-1.5
			c-0.1-0.1-0.1-0.1-0.2-0.1s-0.2,0-0.3,0c-0.3,0-0.4,0.1-0.6,0.3c-0.1,0.2-0.2,0.5-0.2,0.9c0,0.3,0.1,0.5,0.2,0.7
			C261,87.1,261.2,87.2,261.4,87.2z"/>
		<path id="XMLID_788_" class="st1" d="M266.6,87.6c-0.1,0.1-0.3,0.2-0.6,0.3c-0.2,0.1-0.5,0.1-0.8,0.1c-0.6,0-1-0.2-1.2-0.5
			s-0.4-0.8-0.4-1.4c0-0.6,0.1-1.1,0.4-1.4c0.3-0.3,0.7-0.5,1.2-0.5c0.2,0,0.3,0,0.5,0.1c0.2,0,0.3,0.1,0.4,0.2s0.2,0.3,0.3,0.4
			c0.1,0.2,0.1,0.4,0.1,0.7c0,0.1,0,0.2,0,0.3c0,0.1,0,0.2-0.1,0.4h-2.1c0,0.3,0.1,0.5,0.2,0.7c0.1,0.1,0.4,0.2,0.7,0.2
			c0.2,0,0.4,0,0.5-0.1c0.2-0.1,0.3-0.1,0.3-0.2L266.6,87.6z M265.3,85c-0.2,0-0.4,0.1-0.5,0.2c-0.1,0.1-0.2,0.3-0.2,0.6h1.3
			c0-0.3,0-0.4-0.1-0.6C265.6,85.1,265.5,85,265.3,85z"/>
		<path id="XMLID_791_" class="st1" d="M268.5,86.5h-0.2v1.4h-0.9V83h0.9v2.9l0.2-0.1l0.8-1.4h1l-0.8,1.3l-0.4,0.3l0.4,0.3l0.9,1.6
			h-1L268.5,86.5z"/>
		<path id="XMLID_793_" class="st1" d="M270.7,83.4c0-0.1,0.1-0.3,0.2-0.3c0.1-0.1,0.2-0.1,0.4-0.1c0.2,0,0.3,0,0.4,0.1
			c0.1,0.1,0.2,0.2,0.2,0.3c0,0.1-0.1,0.2-0.2,0.3c-0.1,0.1-0.3,0.1-0.4,0.1c-0.2,0-0.3,0-0.4-0.1C270.8,83.7,270.7,83.5,270.7,83.4
			z M270.9,84.4h0.9v3.5h-0.9V84.4z"/>
		<path id="XMLID_796_" class="st1" d="M277.2,87.6c-0.1,0.1-0.3,0.2-0.6,0.3c-0.2,0.1-0.5,0.1-0.8,0.1c-0.6,0-1-0.2-1.2-0.5
			s-0.4-0.8-0.4-1.4c0-0.6,0.1-1.1,0.4-1.4c0.3-0.3,0.7-0.5,1.2-0.5c0.2,0,0.3,0,0.5,0.1c0.2,0,0.3,0.1,0.4,0.2s0.2,0.3,0.3,0.4
			c0.1,0.2,0.1,0.4,0.1,0.7c0,0.1,0,0.2,0,0.3c0,0.1,0,0.2-0.1,0.4h-2.1c0,0.3,0.1,0.5,0.2,0.7c0.1,0.1,0.4,0.2,0.7,0.2
			c0.2,0,0.4,0,0.5-0.1c0.2-0.1,0.3-0.1,0.3-0.2L277.2,87.6z M275.9,85c-0.2,0-0.4,0.1-0.5,0.2c-0.1,0.1-0.2,0.3-0.2,0.6h1.3
			c0-0.3,0-0.4-0.1-0.6C276.3,85.1,276.1,85,275.9,85z"/>
		<path id="XMLID_799_" class="st1" d="M278.9,86.7c0,0.2,0,0.3,0.1,0.4c0,0.1,0.1,0.1,0.2,0.1c0.1,0,0.1,0,0.2,0
			c0.1,0,0.1,0,0.2-0.1l0.1,0.7c-0.1,0-0.2,0.1-0.3,0.1c-0.2,0-0.3,0.1-0.5,0.1c-0.3,0-0.5-0.1-0.6-0.2c-0.1-0.1-0.2-0.3-0.2-0.6V83
			h0.9V86.7z"/>
		<path id="XMLID_801_" class="st1" d="M282.8,87.6c-0.1,0.1-0.3,0.2-0.6,0.3c-0.2,0.1-0.5,0.1-0.8,0.1c-0.6,0-1-0.2-1.2-0.5
			s-0.4-0.8-0.4-1.4c0-0.6,0.1-1.1,0.4-1.4c0.3-0.3,0.7-0.5,1.2-0.5c0.2,0,0.3,0,0.5,0.1c0.2,0,0.3,0.1,0.4,0.2s0.2,0.3,0.3,0.4
			c0.1,0.2,0.1,0.4,0.1,0.7c0,0.1,0,0.2,0,0.3c0,0.1,0,0.2-0.1,0.4h-2.1c0,0.3,0.1,0.5,0.2,0.7c0.1,0.1,0.4,0.2,0.7,0.2
			c0.2,0,0.4,0,0.5-0.1c0.2-0.1,0.3-0.1,0.3-0.2L282.8,87.6z M281.5,85c-0.2,0-0.4,0.1-0.5,0.2c-0.1,0.1-0.2,0.3-0.2,0.6h1.3
			c0-0.3,0-0.4-0.1-0.6C281.9,85.1,281.8,85,281.5,85z"/>
		<path id="XMLID_804_" class="st1" d="M285.6,87.9V86c0-0.3,0-0.6-0.1-0.7c-0.1-0.1-0.2-0.2-0.4-0.2c-0.2,0-0.3,0-0.4,0.1
			c-0.1,0.1-0.2,0.2-0.2,0.3v2.3h-0.9v-3.5h0.7l0.1,0.5h0c0.1-0.1,0.2-0.3,0.4-0.4c0.2-0.1,0.4-0.2,0.6-0.2c0.2,0,0.4,0,0.5,0.1
			c0.1,0.1,0.3,0.2,0.3,0.5c0.1-0.2,0.2-0.3,0.4-0.4c0.2-0.1,0.4-0.2,0.6-0.2c0.2,0,0.4,0,0.5,0.1c0.1,0,0.3,0.1,0.3,0.2
			c0.1,0.1,0.2,0.3,0.2,0.5s0.1,0.4,0.1,0.7v2.1h-0.9v-2c0-0.3,0-0.5-0.1-0.6c-0.1-0.1-0.2-0.2-0.4-0.2c-0.2,0-0.3,0-0.4,0.1
			s-0.2,0.2-0.2,0.4v2.3H285.6z"/>
		<path id="XMLID_806_" class="st1" d="M289.2,84.6c0.2-0.1,0.4-0.2,0.7-0.2c0.3,0,0.5-0.1,0.8-0.1c0.2,0,0.4,0,0.6,0.1
			s0.3,0.1,0.4,0.2c0.1,0.1,0.2,0.2,0.2,0.4c0,0.1,0.1,0.3,0.1,0.5c0,0.2,0,0.4,0,0.6c0,0.2,0,0.4,0,0.6c0,0.2,0,0.4,0,0.6
			c0,0.2,0,0.4,0.1,0.5h-0.7l-0.1-0.5h0c-0.1,0.1-0.2,0.3-0.4,0.4c-0.2,0.1-0.4,0.2-0.6,0.2c-0.2,0-0.3,0-0.4-0.1s-0.2-0.1-0.3-0.2
			c-0.1-0.1-0.2-0.2-0.2-0.3c-0.1-0.1-0.1-0.3-0.1-0.4c0-0.2,0-0.4,0.1-0.5c0.1-0.1,0.2-0.3,0.4-0.4s0.4-0.2,0.6-0.2s0.5,0,0.8,0
			c0-0.3,0-0.4-0.1-0.6c-0.1-0.1-0.2-0.2-0.5-0.2c-0.2,0-0.4,0-0.6,0.1c-0.2,0-0.4,0.1-0.5,0.1L289.2,84.6z M290.4,87.2
			c0.2,0,0.3,0,0.4-0.1s0.2-0.2,0.2-0.3v-0.5c-0.1,0-0.3,0-0.4,0c-0.1,0-0.3,0-0.4,0.1c-0.1,0-0.2,0.1-0.2,0.1
			c-0.1,0.1-0.1,0.1-0.1,0.2c0,0.1,0,0.2,0.1,0.3C290.1,87.2,290.2,87.2,290.4,87.2z"/>
		<path id="XMLID_809_" class="st1" d="M294.9,87.9v-2c0-0.3,0-0.5-0.1-0.6c-0.1-0.1-0.2-0.2-0.4-0.2c-0.2,0-0.3,0-0.4,0.2
			s-0.2,0.2-0.3,0.4v2.3h-0.9v-3.5h0.7l0.1,0.5h0c0.1-0.1,0.3-0.3,0.4-0.4c0.2-0.1,0.4-0.2,0.7-0.2c0.2,0,0.3,0,0.5,0.1
			c0.1,0,0.2,0.1,0.3,0.2s0.2,0.3,0.2,0.4s0.1,0.4,0.1,0.7v2.2H294.9z"/>
		<path id="XMLID_811_" class="st1" d="M299.7,86.9c0-0.1,0-0.2-0.1-0.2c-0.1-0.1-0.2-0.1-0.3-0.2c-0.1,0-0.2-0.1-0.4-0.1
			c-0.1,0-0.3-0.1-0.4-0.2c-0.1-0.1-0.2-0.2-0.3-0.3s-0.1-0.3-0.1-0.5c0-0.3,0.1-0.6,0.3-0.8c0.2-0.2,0.5-0.3,0.9-0.3
			c0.3,0,0.5,0,0.7,0.1c0.2,0.1,0.4,0.1,0.5,0.2l-0.2,0.7c-0.1,0-0.2-0.1-0.4-0.1c-0.2,0-0.3-0.1-0.5-0.1c-0.3,0-0.4,0.1-0.4,0.3
			c0,0.1,0,0.2,0.1,0.2c0.1,0.1,0.2,0.1,0.3,0.1c0.1,0,0.2,0.1,0.4,0.1c0.1,0.1,0.3,0.1,0.4,0.2c0.1,0.1,0.2,0.2,0.3,0.3
			c0.1,0.1,0.1,0.3,0.1,0.5c0,0.4-0.1,0.6-0.3,0.8c-0.2,0.2-0.6,0.3-1,0.3c-0.2,0-0.5,0-0.7-0.1c-0.2-0.1-0.4-0.1-0.5-0.2l0.3-0.7
			c0.1,0.1,0.3,0.1,0.4,0.2c0.2,0.1,0.4,0.1,0.5,0.1c0.1,0,0.2,0,0.3-0.1C299.7,87.1,299.7,87.1,299.7,86.9z"/>
		<path id="XMLID_813_" class="st1" d="M301.2,84.6c0.2-0.1,0.4-0.2,0.7-0.2c0.3,0,0.5-0.1,0.8-0.1c0.2,0,0.4,0,0.6,0.1
			s0.3,0.1,0.4,0.2c0.1,0.1,0.2,0.2,0.2,0.4c0,0.1,0.1,0.3,0.1,0.5c0,0.2,0,0.4,0,0.6c0,0.2,0,0.4,0,0.6c0,0.2,0,0.4,0,0.6
			c0,0.2,0,0.4,0.1,0.5h-0.7l-0.1-0.5h0c-0.1,0.1-0.2,0.3-0.4,0.4c-0.2,0.1-0.4,0.2-0.6,0.2c-0.2,0-0.3,0-0.4-0.1s-0.2-0.1-0.3-0.2
			c-0.1-0.1-0.2-0.2-0.2-0.3c-0.1-0.1-0.1-0.3-0.1-0.4c0-0.2,0-0.4,0.1-0.5c0.1-0.1,0.2-0.3,0.4-0.4s0.4-0.2,0.6-0.2s0.5,0,0.8,0
			c0-0.3,0-0.4-0.1-0.6c-0.1-0.1-0.2-0.2-0.5-0.2c-0.2,0-0.4,0-0.6,0.1c-0.2,0-0.4,0.1-0.5,0.1L301.2,84.6z M302.4,87.2
			c0.2,0,0.3,0,0.4-0.1s0.2-0.2,0.2-0.3v-0.5c-0.1,0-0.3,0-0.4,0c-0.1,0-0.3,0-0.4,0.1c-0.1,0-0.2,0.1-0.2,0.1
			c-0.1,0.1-0.1,0.1-0.1,0.2c0,0.1,0,0.2,0.1,0.3C302.1,87.2,302.2,87.2,302.4,87.2z"/>
		<path id="XMLID_816_" class="st1" d="M306,86.4l0.1,0.5h0l0.1-0.6l0.5-2h0.9l-1.1,3.2c-0.1,0.3-0.2,0.5-0.3,0.7
			c-0.1,0.2-0.2,0.4-0.3,0.6c-0.1,0.2-0.2,0.3-0.3,0.4c-0.1,0.1-0.3,0.1-0.4,0.1c-0.2,0-0.4,0-0.6-0.1l0.2-0.7c0.1,0,0.1,0,0.2,0
			c0.1,0,0.2,0,0.3-0.1c0.1-0.1,0.2-0.3,0.2-0.5l-1.5-3.5h1.1L306,86.4z"/>
		<path id="XMLID_818_" class="st1" d="M308.2,84.4h0.9v3.5h-0.9V84.4z"/>
		<path id="XMLID_820_" class="st1" d="M311.4,86.9c0-0.1,0-0.2-0.1-0.2c-0.1-0.1-0.2-0.1-0.3-0.2c-0.1,0-0.2-0.1-0.4-0.1
			c-0.1,0-0.3-0.1-0.4-0.2c-0.1-0.1-0.2-0.2-0.3-0.3s-0.1-0.3-0.1-0.5c0-0.3,0.1-0.6,0.3-0.8c0.2-0.2,0.5-0.3,0.9-0.3
			c0.3,0,0.5,0,0.7,0.1c0.2,0.1,0.4,0.1,0.5,0.2l-0.2,0.7c-0.1,0-0.2-0.1-0.4-0.1c-0.2,0-0.3-0.1-0.5-0.1c-0.3,0-0.4,0.1-0.4,0.3
			c0,0.1,0,0.2,0.1,0.2c0.1,0.1,0.2,0.1,0.3,0.1c0.1,0,0.2,0.1,0.4,0.1c0.1,0.1,0.3,0.1,0.4,0.2c0.1,0.1,0.2,0.2,0.3,0.3
			c0.1,0.1,0.1,0.3,0.1,0.5c0,0.4-0.1,0.6-0.3,0.8c-0.2,0.2-0.6,0.3-1,0.3c-0.2,0-0.5,0-0.7-0.1c-0.2-0.1-0.4-0.1-0.5-0.2L310,87
			c0.1,0.1,0.3,0.1,0.4,0.2c0.2,0.1,0.4,0.1,0.5,0.1c0.1,0,0.2,0,0.3-0.1C311.4,87.1,311.4,87.1,311.4,86.9z"/>
		<path id="XMLID_822_" class="st1" d="M313,84.4h0.9v3.5H313V84.4z"/>
		<path id="XMLID_824_" class="st1" d="M317.8,86.7c0,0.2,0,0.4,0,0.6c0,0.2,0,0.4,0.1,0.7h-0.7l-0.1-0.5h0
			c-0.1,0.2-0.2,0.3-0.4,0.4c-0.2,0.1-0.4,0.2-0.6,0.2c-0.4,0-0.8-0.1-1-0.4c-0.2-0.3-0.4-0.7-0.4-1.4c0-0.6,0.1-1.1,0.4-1.4
			s0.7-0.5,1.2-0.5c0.1,0,0.3,0,0.4,0c0.1,0,0.2,0,0.3,0.1V83h0.9V86.7z M316.2,87.2c0.2,0,0.3,0,0.4-0.1c0.1-0.1,0.2-0.2,0.2-0.4
			v-1.5c-0.1-0.1-0.1-0.1-0.2-0.1s-0.2,0-0.3,0c-0.3,0-0.4,0.1-0.6,0.3c-0.1,0.2-0.2,0.5-0.2,0.9c0,0.3,0.1,0.5,0.2,0.7
			C315.8,87.1,316,87.2,316.2,87.2z"/>
		<path id="XMLID_827_" class="st1" d="M318.6,84.4h0.9v3.5h-0.9V84.4z"/>
		<path id="XMLID_829_" class="st1" d="M322.4,85.3c-0.1-0.1-0.3-0.1-0.4-0.1c-0.2,0-0.3,0-0.4,0.1c-0.1,0.1-0.2,0.2-0.2,0.3v2.3
			h-0.9v-3.5h0.7l0.1,0.5h0c0.1-0.2,0.2-0.3,0.3-0.4c0.1-0.1,0.3-0.1,0.5-0.1c0.1,0,0.3,0,0.4,0.1L322.4,85.3z"/>
		<path id="XMLID_831_" class="st1" d="M322.4,87.4c0-0.2,0.1-0.3,0.2-0.4s0.2-0.1,0.4-0.1c0.2,0,0.3,0,0.4,0.1
			c0.1,0.1,0.2,0.2,0.2,0.4s-0.1,0.3-0.2,0.4c-0.1,0.1-0.2,0.1-0.4,0.1c-0.2,0-0.3,0-0.4-0.1C322.4,87.7,322.4,87.6,322.4,87.4z"/>
	</g>
</g>
</svg>
