<?xml version="1.0" encoding="utf-8"?>
<!-- Generator: Adobe Illustrator 19.0.0, SVG Export Plug-In . SVG Version: 6.00 Build 0)  -->
<svg version="1.1" id="katman_1" xmlns="http://www.w3.org/2000/svg" xmlns:xlink="http://www.w3.org/1999/xlink" x="0px" y="0px"
	 viewBox="0 0 450 108" style="enable-background:new 0 0 450 108;" xml:space="preserve">
<style type="text/css">
	.st0{fill:#97A7B3;stroke:#7E7F9A;stroke-miterlimit:10;}
	.st1{fill:#CAE7B9;stroke:#97A7B3;stroke-miterlimit:10;}
	.st2{fill:#7E7F9A;}
	.st3{fill:#FFFFFF;}
	.st4{fill:#CAE7B9;}
	.st5{fill:#CAE7B9;stroke:#CAE7B9;stroke-miterlimit:10;}
	.st6{fill:none;}
</style>
<g id="XMLID_301_">
	<path id="XMLID_4_" class="st0" d="M131.5,18.5h67v35h-72v-30C126.5,20.7,128.7,18.5,131.5,18.5z"/>
	<rect id="XMLID_7_" x="198.5" y="18.5" class="st0" width="72" height="35"/>
	<rect id="XMLID_8_" x="270.5" y="18.5" class="st0" width="72" height="35"/>
	<path id="XMLID_9_" class="st0" d="M342.5,18.5h66c2.8,0,5,2.2,5,5v30h-71V18.5z"/>
	<path id="XMLID_10_" class="st1" d="M126.5,53.5h72v36h-67c-2.8,0-5-2.2-5-5V53.5z"/>
	<rect id="XMLID_11_" x="198.5" y="53.5" class="st1" width="72" height="36"/>
	<rect id="XMLID_12_" x="270.5" y="53.5" class="st1" width="72" height="36"/>
	<path id="XMLID_13_" class="st1" d="M342.5,53.5h71v31c0,2.8-2.2,5-5,5h-66V53.5z"/>
	<g id="XMLID_632_">
		<path id="XMLID_633_" class="st2" d="M36.8,32h2.5v12.6h-2.5V32z"/>
		<path id="XMLID_635_" class="st2" d="M44.8,38l-1-2h-0.1l0.3,2v6.6h-2.3V31.9h1.8l4.8,6.7l1,1.9h0.1L49,38.6V32h2.3v12.7h-1.8
			L44.8,38z"/>
		<path id="XMLID_637_" class="st2" d="M53.5,32c0.3,0,0.5-0.1,0.9-0.1c0.3,0,0.6,0,1-0.1c0.3,0,0.7,0,1,0c0.3,0,0.6,0,0.9,0
			c1.1,0,2.1,0.2,2.9,0.5s1.4,0.8,1.9,1.3c0.5,0.6,0.9,1.2,1.1,2c0.2,0.8,0.3,1.6,0.3,2.6c0,0.9-0.1,1.7-0.3,2.5
			c-0.2,0.8-0.6,1.5-1.1,2.1c-0.5,0.6-1.2,1.1-2,1.5c-0.8,0.4-1.8,0.6-3.1,0.6c-0.2,0-0.4,0-0.8,0c-0.3,0-0.6,0-1,0
			c-0.3,0-0.7,0-1-0.1c-0.3,0-0.5,0-0.7-0.1V32z M57.4,34c-0.3,0-0.5,0-0.8,0c-0.3,0-0.5,0-0.6,0.1v8.4c0,0,0.1,0,0.2,0
			c0.1,0,0.2,0,0.4,0c0.1,0,0.3,0,0.4,0c0.1,0,0.2,0,0.3,0c0.7,0,1.3-0.1,1.7-0.4c0.5-0.2,0.8-0.6,1.1-1c0.3-0.4,0.5-0.9,0.6-1.4
			c0.1-0.5,0.2-1.1,0.2-1.6c0-0.5,0-1-0.1-1.5c-0.1-0.5-0.3-0.9-0.5-1.3c-0.3-0.4-0.6-0.7-1.1-1C58.7,34.1,58.1,34,57.4,34z"/>
		<path id="XMLID_640_" class="st2" d="M65.2,32h7.5v2.2h-5v2.9h4.6v2.2h-4.6v3.1h5.1v2.2h-7.6V32z"/>
		<path id="XMLID_642_" class="st2" d="M77.5,38.2L74,32h3l1.9,3.6l0.4,1.3l0.4-1.3l2-3.6h2.7l-3.6,6.1l3.8,6.5h-2.9l-2.2-3.9
			l-0.5-1.3l-0.5,1.3l-2.2,3.9h-2.7L77.5,38.2z"/>
	</g>
	<g id="XMLID_778_">
		<path id="XMLID_779_" class="st3" d="M136.3,36.5c0-0.8,0.2-1.5,0.6-2c0.4-0.5,1-0.7,1.7-0.7c0.4,0,0.7,0.1,1,0.2
			c0.3,0.1,0.5,0.3,0.7,0.5s0.3,0.5,0.4,0.8s0.1,0.7,0.1,1.1c0,0.8-0.2,1.5-0.6,2c-0.4,0.5-1,0.7-1.7,0.7c-0.4,0-0.7-0.1-1-0.2
			c-0.3-0.1-0.5-0.3-0.7-0.5c-0.2-0.2-0.3-0.5-0.4-0.8S136.3,36.9,136.3,36.5z M137.6,36.5c0,0.2,0,0.4,0.1,0.6
			c0,0.2,0.1,0.4,0.2,0.5s0.2,0.2,0.3,0.3c0.1,0.1,0.3,0.1,0.5,0.1c0.3,0,0.6-0.1,0.8-0.4c0.2-0.2,0.3-0.6,0.3-1.2
			c0-0.5-0.1-0.8-0.2-1.1c-0.2-0.3-0.4-0.4-0.8-0.4c-0.3,0-0.6,0.1-0.8,0.4C137.7,35.6,137.6,36,137.6,36.5z"/>
		<path id="XMLID_782_" class="st3" d="M144.6,35.2c-0.2-0.1-0.4-0.1-0.6-0.1c-0.2,0-0.4,0.1-0.6,0.2c-0.2,0.1-0.3,0.3-0.3,0.5V39
			h-1.3v-5h1l0.1,0.7h0c0.1-0.2,0.3-0.4,0.5-0.6c0.2-0.1,0.4-0.2,0.7-0.2c0.2,0,0.4,0,0.6,0.1L144.6,35.2z"/>
		<path id="XMLID_784_" class="st3" d="M148.4,39v-2.8c0-0.4-0.1-0.7-0.2-0.9c-0.1-0.2-0.3-0.3-0.6-0.3c-0.2,0-0.5,0.1-0.6,0.2
			s-0.3,0.3-0.4,0.5V39h-1.3v-5h1l0.1,0.7h0c0.2-0.2,0.4-0.4,0.6-0.6c0.3-0.2,0.6-0.2,1-0.2c0.2,0,0.5,0,0.7,0.1
			c0.2,0.1,0.4,0.2,0.5,0.3s0.2,0.4,0.3,0.6c0.1,0.3,0.1,0.6,0.1,1V39H148.4z"/>
		<path id="XMLID_786_" class="st3" d="M154.8,38.6c-0.2,0.2-0.5,0.3-0.8,0.4s-0.7,0.2-1.1,0.2c-0.8,0-1.4-0.2-1.8-0.7
			c-0.4-0.5-0.6-1.1-0.6-1.9c0-0.9,0.2-1.5,0.6-2s1-0.7,1.8-0.7c0.3,0,0.5,0,0.7,0.1c0.2,0.1,0.5,0.2,0.6,0.3s0.3,0.4,0.5,0.6
			c0.1,0.3,0.2,0.6,0.2,1c0,0.1,0,0.3,0,0.5s0,0.3-0.1,0.5h-3c0,0.4,0.1,0.7,0.3,0.9c0.2,0.2,0.5,0.3,1,0.3c0.3,0,0.5,0,0.7-0.1
			c0.2-0.1,0.4-0.2,0.5-0.3L154.8,38.6z M153,34.9c-0.3,0-0.6,0.1-0.8,0.3s-0.3,0.5-0.3,0.8h1.9c0-0.4,0-0.6-0.2-0.8
			S153.3,34.9,153,34.9z"/>
		<path id="XMLID_789_" class="st3" d="M157.6,36.9h-0.4V39h-1.3v-7h1.3v4.1l0.3-0.1l1.1-2h1.4l-1.2,1.9l-0.5,0.4l0.6,0.4l1.4,2.3
			h-1.5L157.6,36.9z"/>
		<path id="XMLID_791_" class="st3" d="M160.8,32c0.1,0,0.3,0,0.5,0c0.2,0,0.4,0,0.5,0c0.2,0,0.4,0,0.5,0c0.2,0,0.3,0,0.5,0
			c0.6,0,1.1,0.1,1.6,0.3s0.8,0.4,1.1,0.7s0.5,0.7,0.6,1.1c0.1,0.4,0.2,0.9,0.2,1.4c0,0.5-0.1,0.9-0.2,1.4c-0.1,0.4-0.3,0.8-0.6,1.2
			c-0.3,0.3-0.6,0.6-1.1,0.8c-0.5,0.2-1,0.3-1.7,0.3c-0.1,0-0.2,0-0.4,0c-0.2,0-0.4,0-0.5,0c-0.2,0-0.4,0-0.5,0c-0.2,0-0.3,0-0.4,0
			V32z M163,33.1c-0.1,0-0.3,0-0.4,0c-0.2,0-0.3,0-0.3,0v4.7c0,0,0.1,0,0.1,0s0.1,0,0.2,0c0.1,0,0.1,0,0.2,0c0.1,0,0.1,0,0.1,0
			c0.4,0,0.7-0.1,1-0.2c0.3-0.1,0.5-0.3,0.6-0.5s0.3-0.5,0.3-0.8c0.1-0.3,0.1-0.6,0.1-0.9c0-0.3,0-0.5-0.1-0.8
			c-0.1-0.3-0.2-0.5-0.3-0.7c-0.1-0.2-0.3-0.4-0.6-0.5S163.4,33.1,163,33.1z"/>
		<path id="XMLID_794_" class="st3" d="M167.2,32.6c0-0.2,0.1-0.4,0.2-0.5c0.1-0.1,0.3-0.2,0.6-0.2s0.5,0.1,0.6,0.2s0.2,0.3,0.2,0.5
			s-0.1,0.4-0.2,0.5c-0.2,0.1-0.4,0.2-0.6,0.2s-0.5-0.1-0.6-0.2C167.3,32.9,167.2,32.8,167.2,32.6z M167.4,34h1.3v5h-1.3V34z"/>
		<path id="XMLID_797_" class="st3" d="M169.7,37.9l2-2.4l0.5-0.4h-2.5V34h3.9v1.1l-2,2.4l-0.5,0.4h2.5V39h-3.9V37.9z"/>
		<path id="XMLID_799_" class="st3" d="M174.5,32.6c0-0.2,0.1-0.4,0.2-0.5c0.1-0.1,0.3-0.2,0.6-0.2s0.5,0.1,0.6,0.2s0.2,0.3,0.2,0.5
			s-0.1,0.4-0.2,0.5c-0.2,0.1-0.4,0.2-0.6,0.2s-0.5-0.1-0.6-0.2C174.5,32.9,174.5,32.8,174.5,32.6z M174.7,34h1.3v5h-1.3V34z"/>
		<path id="XMLID_802_" class="st3" d="M177.3,32h2.4v1.1h-1.1v7.1h1.1v1.1h-2.4V32z"/>
		<path id="XMLID_804_" class="st3" d="M180.3,35.5c0-1.2,0.2-2.1,0.6-2.7c0.4-0.6,1-0.9,1.8-0.9c0.8,0,1.5,0.3,1.9,0.9
			c0.4,0.6,0.6,1.5,0.6,2.7c0,1.2-0.2,2.1-0.6,2.8c-0.4,0.6-1,0.9-1.8,0.9c-0.8,0-1.4-0.3-1.8-0.9C180.5,37.6,180.3,36.7,180.3,35.5
			z M181.6,35.5c0,0.8,0.1,1.4,0.3,1.9s0.5,0.7,0.9,0.7c0.4,0,0.7-0.2,0.9-0.6c0.2-0.4,0.3-1.1,0.3-1.9c0-0.8-0.1-1.4-0.3-1.9
			c-0.2-0.4-0.5-0.7-0.9-0.7c-0.4,0-0.7,0.2-0.9,0.6S181.6,34.6,181.6,35.5z"/>
		<path id="XMLID_807_" class="st3" d="M188.2,41.3h-2.4v-1.1h1.1v-7.1h-1.1V32h2.4V41.3z"/>
	</g>
	<g id="XMLID_773_">
		<path id="XMLID_774_" class="st3" d="M157.7,71.8h1.4v-4l0.1-0.7l-0.5,0.6l-0.9,0.6l-0.6-0.8l2.3-1.8h0.7v6h1.4v1.1h-4V71.8z"/>
		<path id="XMLID_776_" class="st3" d="M167.1,67.6c0,0.3-0.1,0.7-0.2,1s-0.3,0.7-0.5,1c-0.2,0.3-0.4,0.7-0.6,1
			c-0.2,0.3-0.5,0.6-0.7,0.9l-0.5,0.4v0l0.7-0.1h1.9v1.1h-4.2v-0.7c0.2-0.2,0.3-0.4,0.5-0.6s0.4-0.5,0.6-0.7
			c0.2-0.3,0.4-0.5,0.6-0.8c0.2-0.3,0.4-0.5,0.5-0.8c0.2-0.3,0.3-0.5,0.4-0.8s0.1-0.5,0.1-0.7c0-0.3-0.1-0.5-0.2-0.7
			c-0.2-0.2-0.4-0.3-0.7-0.3c-0.2,0-0.4,0-0.7,0.1s-0.4,0.2-0.6,0.3l-0.5-0.9c0.3-0.2,0.6-0.4,0.9-0.5c0.3-0.1,0.7-0.2,1.2-0.2
			c0.3,0,0.6,0,0.8,0.1c0.2,0.1,0.4,0.2,0.6,0.3s0.3,0.3,0.4,0.6C167.1,67,167.1,67.3,167.1,67.6z"/>
	</g>
	<g id="XMLID_768_">
		<path id="XMLID_769_" class="st3" d="M233.1,67.6c0,0.3-0.1,0.7-0.2,1c-0.1,0.3-0.3,0.7-0.5,1c-0.2,0.3-0.4,0.7-0.6,1
			c-0.2,0.3-0.5,0.6-0.7,0.9l-0.5,0.4v0l0.7-0.1h1.9v1.1h-4.2v-0.7c0.2-0.2,0.3-0.4,0.5-0.6s0.4-0.5,0.6-0.7s0.4-0.5,0.6-0.8
			c0.2-0.3,0.4-0.5,0.5-0.8s0.3-0.5,0.4-0.8s0.1-0.5,0.1-0.7c0-0.3-0.1-0.5-0.2-0.7c-0.2-0.2-0.4-0.3-0.7-0.3c-0.2,0-0.4,0-0.7,0.1
			c-0.2,0.1-0.4,0.2-0.6,0.3l-0.5-0.9c0.3-0.2,0.6-0.4,0.9-0.5c0.3-0.1,0.7-0.2,1.2-0.2c0.3,0,0.5,0,0.8,0.1s0.4,0.2,0.6,0.3
			c0.2,0.2,0.3,0.3,0.4,0.6C233.1,67,233.1,67.3,233.1,67.6z"/>
		<path id="XMLID_771_" class="st3" d="M238.8,67.6c0,0.3-0.1,0.7-0.2,1c-0.1,0.3-0.3,0.7-0.5,1c-0.2,0.3-0.4,0.7-0.6,1
			c-0.2,0.3-0.5,0.6-0.7,0.9l-0.5,0.4v0l0.7-0.1h1.9v1.1h-4.2v-0.7c0.2-0.2,0.3-0.4,0.5-0.6s0.4-0.5,0.6-0.7s0.4-0.5,0.6-0.8
			c0.2-0.3,0.4-0.5,0.5-0.8s0.3-0.5,0.4-0.8s0.1-0.5,0.1-0.7c0-0.3-0.1-0.5-0.2-0.7c-0.2-0.2-0.4-0.3-0.7-0.3c-0.2,0-0.4,0-0.7,0.1
			c-0.2,0.1-0.4,0.2-0.6,0.3l-0.5-0.9c0.3-0.2,0.6-0.4,0.9-0.5c0.3-0.1,0.7-0.2,1.2-0.2c0.3,0,0.5,0,0.8,0.1s0.4,0.2,0.6,0.3
			c0.2,0.2,0.3,0.3,0.4,0.6C238.7,67,238.8,67.3,238.8,67.6z"/>
	</g>
	<g id="XMLID_760_">
		<path id="XMLID_761_" class="st3" d="M299.6,69.4h2.5v1.2h-2.5V69.4z"/>
		<path id="XMLID_763_" class="st3" d="M303.1,68.1c0-0.3,0.1-0.7,0.2-0.9s0.3-0.5,0.5-0.7c0.2-0.2,0.4-0.4,0.7-0.5s0.6-0.2,1-0.2
			c0.8,0,1.3,0.2,1.8,0.7c0.4,0.4,0.6,1.1,0.6,2c0,0.8-0.1,1.4-0.3,2s-0.5,1-0.8,1.4s-0.7,0.7-1.1,0.9c-0.4,0.2-0.9,0.3-1.4,0.4
			l-0.3-1c0.4,0,0.7-0.1,1-0.3c0.3-0.1,0.5-0.3,0.7-0.5c0.2-0.2,0.4-0.4,0.5-0.7c0.1-0.3,0.2-0.5,0.3-0.8c-0.2,0.2-0.3,0.3-0.5,0.4
			c-0.2,0.1-0.4,0.1-0.7,0.1c-0.3,0-0.5,0-0.8-0.1s-0.5-0.2-0.7-0.4c-0.2-0.2-0.4-0.4-0.5-0.7C303.1,68.8,303.1,68.4,303.1,68.1z
			 M304.3,68c0,0.4,0.1,0.7,0.3,0.9c0.2,0.2,0.5,0.3,0.8,0.3c0.3,0,0.5,0,0.7-0.1c0.2-0.1,0.3-0.2,0.4-0.3c0-0.1,0-0.3,0-0.4
			c0-0.2,0-0.4-0.1-0.5c0-0.2-0.1-0.3-0.2-0.5c-0.1-0.1-0.2-0.3-0.4-0.3c-0.1-0.1-0.3-0.1-0.5-0.1c-0.3,0-0.6,0.1-0.8,0.3
			C304.4,67.3,304.3,67.6,304.3,68z"/>
		<path id="XMLID_766_" class="st3" d="M310.5,71.9c0.4,0,0.8-0.1,1-0.3s0.3-0.5,0.3-0.9c0-0.4-0.1-0.7-0.4-0.9s-0.7-0.3-1.2-0.3
			l-0.8,0v-3.7h3.4v1.2h-2.3v1.3l0.4,0c0.3,0,0.6,0.1,0.9,0.2c0.3,0.1,0.5,0.3,0.7,0.4c0.2,0.2,0.3,0.4,0.4,0.7
			c0.1,0.3,0.2,0.6,0.2,0.9c0,0.4-0.1,0.7-0.2,1s-0.3,0.5-0.6,0.8c-0.2,0.2-0.5,0.4-0.8,0.5c-0.3,0.1-0.7,0.2-1.1,0.2
			c-0.3,0-0.6,0-0.9-0.1c-0.3,0-0.5-0.1-0.7-0.2l0.3-1.1c0.2,0.1,0.3,0.1,0.5,0.2C310,71.8,310.2,71.9,310.5,71.9z"/>
	</g>
	<g id="XMLID_755_">
		<path id="XMLID_756_" class="st3" d="M374.5,71.9c0.4,0,0.8-0.1,1-0.3s0.4-0.5,0.4-0.9c0-0.4-0.1-0.7-0.4-0.9s-0.7-0.3-1.2-0.3
			l-0.8,0v-3.7h3.4v1.2h-2.3v1.3l0.4,0c0.3,0,0.6,0.1,0.9,0.2c0.3,0.1,0.5,0.3,0.7,0.4c0.2,0.2,0.3,0.4,0.4,0.7
			c0.1,0.3,0.1,0.6,0.1,0.9c0,0.4-0.1,0.7-0.2,1c-0.1,0.3-0.3,0.5-0.6,0.8c-0.2,0.2-0.5,0.4-0.8,0.5c-0.3,0.1-0.7,0.2-1,0.2
			c-0.3,0-0.6,0-0.9-0.1c-0.3,0-0.5-0.1-0.7-0.2l0.3-1.1c0.2,0.1,0.3,0.1,0.5,0.2C374,71.8,374.3,71.9,374.5,71.9z"/>
		<path id="XMLID_758_" class="st3" d="M382.8,67.6c0,0.3-0.1,0.7-0.2,1c-0.1,0.3-0.3,0.7-0.5,1c-0.2,0.3-0.4,0.7-0.6,1
			c-0.2,0.3-0.5,0.6-0.7,0.9l-0.5,0.4v0l0.7-0.1h1.9v1.1h-4.2v-0.7c0.2-0.2,0.3-0.4,0.5-0.6c0.2-0.2,0.4-0.5,0.6-0.7
			c0.2-0.3,0.4-0.5,0.6-0.8c0.2-0.3,0.4-0.5,0.5-0.8s0.3-0.5,0.4-0.8s0.1-0.5,0.1-0.7c0-0.3-0.1-0.5-0.2-0.7
			c-0.2-0.2-0.4-0.3-0.7-0.3c-0.2,0-0.4,0-0.7,0.1c-0.2,0.1-0.4,0.2-0.6,0.3l-0.5-0.9c0.3-0.2,0.6-0.4,0.9-0.5
			c0.3-0.1,0.7-0.2,1.2-0.2c0.3,0,0.6,0,0.8,0.1s0.4,0.2,0.6,0.3c0.2,0.2,0.3,0.3,0.4,0.6C382.7,67,382.8,67.3,382.8,67.6z"/>
	</g>
	<g id="XMLID_725_">
		<path id="XMLID_726_" class="st3" d="M208.4,36.5c0-0.8,0.2-1.5,0.6-2c0.4-0.5,1-0.7,1.7-0.7c0.4,0,0.7,0.1,1,0.2
			c0.3,0.1,0.5,0.3,0.7,0.5s0.3,0.5,0.4,0.8s0.1,0.7,0.1,1.1c0,0.8-0.2,1.5-0.6,2c-0.4,0.5-1,0.7-1.7,0.7c-0.4,0-0.7-0.1-1-0.2
			c-0.3-0.1-0.5-0.3-0.7-0.5c-0.2-0.2-0.3-0.5-0.4-0.8S208.4,36.9,208.4,36.5z M209.7,36.5c0,0.2,0,0.4,0.1,0.6
			c0,0.2,0.1,0.4,0.2,0.5s0.2,0.2,0.3,0.3c0.1,0.1,0.3,0.1,0.5,0.1c0.3,0,0.6-0.1,0.8-0.4c0.2-0.2,0.3-0.6,0.3-1.2
			c0-0.5-0.1-0.8-0.2-1.1c-0.2-0.3-0.4-0.4-0.8-0.4c-0.3,0-0.6,0.1-0.8,0.4C209.8,35.6,209.7,36,209.7,36.5z"/>
		<path id="XMLID_729_" class="st3" d="M216.8,35.2c-0.2-0.1-0.4-0.1-0.6-0.1c-0.2,0-0.4,0.1-0.6,0.2c-0.2,0.1-0.3,0.3-0.3,0.5V39
			H214v-5h1l0.1,0.7h0c0.1-0.2,0.3-0.4,0.5-0.6c0.2-0.1,0.4-0.2,0.7-0.2c0.2,0,0.4,0,0.6,0.1L216.8,35.2z"/>
		<path id="XMLID_731_" class="st3" d="M220.6,39v-2.8c0-0.4-0.1-0.7-0.2-0.9c-0.1-0.2-0.3-0.3-0.6-0.3c-0.2,0-0.5,0.1-0.6,0.2
			s-0.3,0.3-0.4,0.5V39h-1.3v-5h1l0.1,0.7h0c0.2-0.2,0.4-0.4,0.6-0.6c0.3-0.2,0.6-0.2,1-0.2c0.2,0,0.5,0,0.7,0.1
			c0.2,0.1,0.4,0.2,0.5,0.3s0.2,0.4,0.3,0.6c0.1,0.3,0.1,0.6,0.1,1V39H220.6z"/>
		<path id="XMLID_733_" class="st3" d="M226.9,38.6c-0.2,0.2-0.5,0.3-0.8,0.4c-0.3,0.1-0.7,0.2-1.1,0.2c-0.8,0-1.4-0.2-1.8-0.7
			c-0.4-0.5-0.6-1.1-0.6-1.9c0-0.9,0.2-1.5,0.6-2s1-0.7,1.8-0.7c0.3,0,0.5,0,0.7,0.1c0.2,0.1,0.5,0.2,0.6,0.3
			c0.2,0.2,0.3,0.4,0.4,0.6c0.1,0.3,0.2,0.6,0.2,1c0,0.1,0,0.3,0,0.5s0,0.3-0.1,0.5h-3c0,0.4,0.1,0.7,0.3,0.9c0.2,0.2,0.5,0.3,1,0.3
			c0.3,0,0.5,0,0.7-0.1c0.2-0.1,0.4-0.2,0.5-0.3L226.9,38.6z M225.1,34.9c-0.3,0-0.6,0.1-0.8,0.3s-0.3,0.5-0.3,0.8h1.9
			c0-0.4,0-0.6-0.2-0.8S225.4,34.9,225.1,34.9z"/>
		<path id="XMLID_736_" class="st3" d="M229.7,36.9h-0.3V39H228v-7h1.3v4.1l0.3-0.1l1.1-2h1.4l-1.2,1.9l-0.5,0.4l0.5,0.4l1.4,2.3
			h-1.5L229.7,36.9z"/>
		<path id="XMLID_738_" class="st3" d="M233,32c0.1,0,0.3,0,0.5,0c0.2,0,0.4,0,0.5,0c0.2,0,0.4,0,0.5,0c0.2,0,0.3,0,0.5,0
			c0.6,0,1.2,0.1,1.6,0.3c0.4,0.2,0.8,0.4,1.1,0.7s0.5,0.7,0.6,1.1c0.1,0.4,0.2,0.9,0.2,1.4c0,0.5-0.1,0.9-0.2,1.4s-0.3,0.8-0.6,1.2
			c-0.3,0.3-0.6,0.6-1.1,0.8c-0.5,0.2-1,0.3-1.7,0.3c-0.1,0-0.2,0-0.4,0c-0.2,0-0.4,0-0.5,0c-0.2,0-0.4,0-0.5,0c-0.2,0-0.3,0-0.4,0
			V32z M235.1,33.1c-0.1,0-0.3,0-0.4,0c-0.2,0-0.3,0-0.3,0v4.7c0,0,0.1,0,0.1,0c0.1,0,0.1,0,0.2,0c0.1,0,0.1,0,0.2,0
			c0.1,0,0.1,0,0.1,0c0.4,0,0.7-0.1,1-0.2s0.5-0.3,0.6-0.5s0.3-0.5,0.3-0.8c0.1-0.3,0.1-0.6,0.1-0.9c0-0.3,0-0.5-0.1-0.8
			c-0.1-0.3-0.2-0.5-0.3-0.7c-0.1-0.2-0.3-0.4-0.6-0.5C235.8,33.2,235.5,33.1,235.1,33.1z"/>
		<path id="XMLID_741_" class="st3" d="M239.3,32.6c0-0.2,0.1-0.4,0.2-0.5c0.1-0.1,0.3-0.2,0.6-0.2s0.5,0.1,0.6,0.2s0.2,0.3,0.2,0.5
			s-0.1,0.4-0.2,0.5c-0.2,0.1-0.4,0.2-0.6,0.2s-0.5-0.1-0.6-0.2C239.4,32.9,239.3,32.8,239.3,32.6z M239.5,34h1.3v5h-1.3V34z"/>
		<path id="XMLID_744_" class="st3" d="M241.8,37.9l2-2.4l0.5-0.4h-2.5V34h3.9v1.1l-2,2.4l-0.5,0.4h2.5V39h-3.9V37.9z"/>
		<path id="XMLID_746_" class="st3" d="M246.6,32.6c0-0.2,0.1-0.4,0.2-0.5c0.1-0.1,0.3-0.2,0.6-0.2c0.3,0,0.5,0.1,0.6,0.2
			c0.2,0.1,0.2,0.3,0.2,0.5s-0.1,0.4-0.2,0.5c-0.2,0.1-0.4,0.2-0.6,0.2c-0.3,0-0.5-0.1-0.6-0.2C246.7,32.9,246.6,32.8,246.6,32.6z
			 M246.8,34h1.3v5h-1.3V34z"/>
		<path id="XMLID_749_" class="st3" d="M249.4,32h2.3v1.1h-1.1v7.1h1.1v1.1h-2.3V32z"/>
		<path id="XMLID_751_" class="st3" d="M253,37.9h1.4V34l0.2-0.7l-0.5,0.6l-0.9,0.6l-0.5-0.8l2.3-1.8h0.7v6h1.4V39h-4V37.9z"/>
		<path id="XMLID_753_" class="st3" d="M260.3,41.3H258v-1.1h1.1v-7.1H258V32h2.3V41.3z"/>
	</g>
	<g id="XMLID_695_">
		<path id="XMLID_696_" class="st3" d="M280.4,36.5c0-0.8,0.2-1.5,0.6-2c0.4-0.5,1-0.7,1.7-0.7c0.4,0,0.7,0.1,1,0.2
			c0.3,0.1,0.5,0.3,0.7,0.5s0.3,0.5,0.4,0.8s0.1,0.7,0.1,1.1c0,0.8-0.2,1.5-0.6,2c-0.4,0.5-1,0.7-1.7,0.7c-0.4,0-0.7-0.1-1-0.2
			c-0.3-0.1-0.5-0.3-0.7-0.5c-0.2-0.2-0.3-0.5-0.4-0.8S280.4,36.9,280.4,36.5z M281.7,36.5c0,0.2,0,0.4,0.1,0.6
			c0,0.2,0.1,0.4,0.2,0.5s0.2,0.2,0.3,0.3c0.1,0.1,0.3,0.1,0.5,0.1c0.3,0,0.6-0.1,0.8-0.4c0.2-0.2,0.3-0.6,0.3-1.2
			c0-0.5-0.1-0.8-0.2-1.1c-0.2-0.3-0.4-0.4-0.8-0.4c-0.3,0-0.6,0.1-0.8,0.4C281.8,35.6,281.7,36,281.7,36.5z"/>
		<path id="XMLID_699_" class="st3" d="M288.8,35.2c-0.2-0.1-0.4-0.1-0.6-0.1c-0.2,0-0.4,0.1-0.6,0.2c-0.2,0.1-0.3,0.3-0.3,0.5V39
			H286v-5h1l0.2,0.7h0c0.1-0.2,0.3-0.4,0.5-0.6c0.2-0.1,0.4-0.2,0.7-0.2c0.2,0,0.4,0,0.6,0.1L288.8,35.2z"/>
		<path id="XMLID_701_" class="st3" d="M292.6,39v-2.8c0-0.4-0.1-0.7-0.2-0.9c-0.1-0.2-0.3-0.3-0.6-0.3c-0.2,0-0.5,0.1-0.6,0.2
			s-0.3,0.3-0.4,0.5V39h-1.3v-5h1l0.2,0.7h0c0.2-0.2,0.4-0.4,0.6-0.6c0.3-0.2,0.6-0.2,1-0.2c0.2,0,0.5,0,0.7,0.1
			c0.2,0.1,0.4,0.2,0.5,0.3c0.1,0.2,0.2,0.4,0.3,0.6s0.1,0.6,0.1,1V39H292.6z"/>
		<path id="XMLID_703_" class="st3" d="M298.9,38.6c-0.2,0.2-0.5,0.3-0.8,0.4s-0.7,0.2-1.1,0.2c-0.8,0-1.4-0.2-1.8-0.7
			c-0.4-0.5-0.6-1.1-0.6-1.9c0-0.9,0.2-1.5,0.6-2s1-0.7,1.8-0.7c0.3,0,0.5,0,0.7,0.1c0.2,0.1,0.5,0.2,0.6,0.3
			c0.2,0.2,0.3,0.4,0.4,0.6c0.1,0.3,0.2,0.6,0.2,1c0,0.1,0,0.3,0,0.5s0,0.3-0.1,0.5h-3c0,0.4,0.1,0.7,0.3,0.9c0.2,0.2,0.5,0.3,1,0.3
			c0.3,0,0.5,0,0.7-0.1c0.2-0.1,0.4-0.2,0.5-0.3L298.9,38.6z M297.1,34.9c-0.3,0-0.6,0.1-0.8,0.3c-0.2,0.2-0.3,0.5-0.3,0.8h1.9
			c0-0.4,0-0.6-0.2-0.8C297.6,35,297.4,34.9,297.1,34.9z"/>
		<path id="XMLID_706_" class="st3" d="M301.7,36.9h-0.3V39H300v-7h1.3v4.1l0.3-0.1l1.1-2h1.4l-1.2,1.9l-0.5,0.4l0.5,0.4l1.4,2.3
			h-1.5L301.7,36.9z"/>
		<path id="XMLID_708_" class="st3" d="M305,32c0.1,0,0.3,0,0.5,0c0.2,0,0.4,0,0.5,0c0.2,0,0.4,0,0.5,0c0.2,0,0.3,0,0.5,0
			c0.6,0,1.2,0.1,1.6,0.3c0.4,0.2,0.8,0.4,1.1,0.7s0.5,0.7,0.6,1.1c0.1,0.4,0.2,0.9,0.2,1.4c0,0.5-0.1,0.9-0.2,1.4s-0.3,0.8-0.6,1.2
			c-0.3,0.3-0.6,0.6-1.1,0.8c-0.5,0.2-1,0.3-1.7,0.3c-0.1,0-0.2,0-0.4,0c-0.2,0-0.4,0-0.5,0c-0.2,0-0.4,0-0.5,0c-0.2,0-0.3,0-0.4,0
			V32z M307.1,33.1c-0.1,0-0.3,0-0.4,0c-0.2,0-0.3,0-0.3,0v4.7c0,0,0.1,0,0.1,0c0.1,0,0.1,0,0.2,0c0.1,0,0.1,0,0.2,0
			c0.1,0,0.1,0,0.1,0c0.4,0,0.7-0.1,1-0.2s0.5-0.3,0.6-0.5s0.3-0.5,0.3-0.8c0.1-0.3,0.1-0.6,0.1-0.9c0-0.3,0-0.5-0.1-0.8
			c-0.1-0.3-0.2-0.5-0.3-0.7c-0.1-0.2-0.3-0.4-0.6-0.5C307.8,33.2,307.5,33.1,307.1,33.1z"/>
		<path id="XMLID_711_" class="st3" d="M311.3,32.6c0-0.2,0.1-0.4,0.2-0.5c0.1-0.1,0.3-0.2,0.6-0.2s0.5,0.1,0.6,0.2s0.2,0.3,0.2,0.5
			s-0.1,0.4-0.2,0.5c-0.2,0.1-0.4,0.2-0.6,0.2s-0.5-0.1-0.6-0.2C311.4,32.9,311.3,32.8,311.3,32.6z M311.5,34h1.3v5h-1.3V34z"/>
		<path id="XMLID_714_" class="st3" d="M313.8,37.9l2-2.4l0.5-0.4h-2.5V34h3.9v1.1l-2,2.4l-0.5,0.4h2.5V39h-3.9V37.9z"/>
		<path id="XMLID_716_" class="st3" d="M318.6,32.6c0-0.2,0.1-0.4,0.2-0.5c0.1-0.1,0.3-0.2,0.6-0.2c0.3,0,0.5,0.1,0.6,0.2
			c0.2,0.1,0.2,0.3,0.2,0.5s-0.1,0.4-0.2,0.5c-0.2,0.1-0.4,0.2-0.6,0.2c-0.3,0-0.5-0.1-0.6-0.2C318.7,32.9,318.6,32.8,318.6,32.6z
			 M318.8,34h1.3v5h-1.3V34z"/>
		<path id="XMLID_719_" class="st3" d="M321.4,32h2.3v1.1h-1.1v7.1h1.1v1.1h-2.3V32z"/>
		<path id="XMLID_721_" class="st3" d="M328.8,33.7c0,0.3-0.1,0.7-0.2,1s-0.3,0.7-0.5,1c-0.2,0.3-0.4,0.7-0.6,1
			c-0.2,0.3-0.5,0.6-0.7,0.9l-0.5,0.4v0l0.7-0.1h1.9V39h-4.2v-0.7c0.2-0.2,0.3-0.4,0.5-0.6c0.2-0.2,0.4-0.5,0.6-0.7
			c0.2-0.3,0.4-0.5,0.6-0.8c0.2-0.3,0.4-0.5,0.5-0.8c0.2-0.3,0.3-0.5,0.4-0.8s0.1-0.5,0.1-0.7c0-0.3-0.1-0.5-0.2-0.7
			c-0.2-0.2-0.4-0.3-0.7-0.3c-0.2,0-0.4,0-0.7,0.1s-0.4,0.2-0.6,0.3l-0.5-0.9c0.3-0.2,0.6-0.4,0.9-0.5c0.3-0.1,0.7-0.2,1.2-0.2
			c0.3,0,0.5,0,0.8,0.1s0.4,0.2,0.6,0.4s0.3,0.3,0.4,0.6S328.8,33.4,328.8,33.7z"/>
		<path id="XMLID_723_" class="st3" d="M332.3,41.3H330v-1.1h1.1v-7.1H330V32h2.3V41.3z"/>
	</g>
	<g id="XMLID_665_">
		<path id="XMLID_666_" class="st3" d="M351.9,36.5c0-0.8,0.2-1.5,0.6-2c0.4-0.5,1-0.7,1.7-0.7c0.4,0,0.7,0.1,1,0.2
			c0.3,0.1,0.5,0.3,0.7,0.5s0.3,0.5,0.4,0.8s0.1,0.7,0.1,1.1c0,0.8-0.2,1.5-0.6,2c-0.4,0.5-1,0.7-1.7,0.7c-0.4,0-0.7-0.1-1-0.2
			c-0.3-0.1-0.5-0.3-0.7-0.5c-0.2-0.2-0.3-0.5-0.4-0.8S351.9,36.9,351.9,36.5z M353.2,36.5c0,0.2,0,0.4,0.1,0.6
			c0,0.2,0.1,0.4,0.2,0.5s0.2,0.2,0.3,0.3c0.1,0.1,0.3,0.1,0.5,0.1c0.3,0,0.6-0.1,0.8-0.4c0.2-0.2,0.3-0.6,0.3-1.2
			c0-0.5-0.1-0.8-0.2-1.1c-0.2-0.3-0.4-0.4-0.8-0.4c-0.3,0-0.6,0.1-0.8,0.4C353.3,35.6,353.2,36,353.2,36.5z"/>
		<path id="XMLID_669_" class="st3" d="M360.3,35.2c-0.2-0.1-0.4-0.1-0.6-0.1c-0.2,0-0.4,0.1-0.6,0.2c-0.2,0.1-0.3,0.3-0.3,0.5V39
			h-1.3v-5h1l0.2,0.7h0c0.1-0.2,0.3-0.4,0.5-0.6c0.2-0.1,0.4-0.2,0.7-0.2c0.2,0,0.4,0,0.6,0.1L360.3,35.2z"/>
		<path id="XMLID_671_" class="st3" d="M364.1,39v-2.8c0-0.4-0.1-0.7-0.2-0.9c-0.1-0.2-0.3-0.3-0.6-0.3c-0.2,0-0.5,0.1-0.6,0.2
			s-0.3,0.3-0.4,0.5V39H361v-5h1l0.2,0.7h0c0.2-0.2,0.4-0.4,0.6-0.6c0.3-0.2,0.6-0.2,1-0.2c0.2,0,0.5,0,0.7,0.1
			c0.2,0.1,0.4,0.2,0.5,0.3c0.1,0.2,0.2,0.4,0.3,0.6s0.1,0.6,0.1,1V39H364.1z"/>
		<path id="XMLID_673_" class="st3" d="M370.4,38.6c-0.2,0.2-0.5,0.3-0.8,0.4s-0.7,0.2-1.1,0.2c-0.8,0-1.4-0.2-1.8-0.7
			c-0.4-0.5-0.6-1.1-0.6-1.9c0-0.9,0.2-1.5,0.6-2s1-0.7,1.8-0.7c0.3,0,0.5,0,0.7,0.1c0.2,0.1,0.5,0.2,0.6,0.3
			c0.2,0.2,0.3,0.4,0.4,0.6c0.1,0.3,0.2,0.6,0.2,1c0,0.1,0,0.3,0,0.5s0,0.3-0.1,0.5h-3c0,0.4,0.1,0.7,0.3,0.9c0.2,0.2,0.5,0.3,1,0.3
			c0.3,0,0.5,0,0.7-0.1c0.2-0.1,0.4-0.2,0.5-0.3L370.4,38.6z M368.6,34.9c-0.3,0-0.6,0.1-0.8,0.3c-0.2,0.2-0.3,0.5-0.3,0.8h1.9
			c0-0.4,0-0.6-0.2-0.8C369.1,35,368.9,34.9,368.6,34.9z"/>
		<path id="XMLID_676_" class="st3" d="M373.2,36.9h-0.3V39h-1.3v-7h1.3v4.1l0.3-0.1l1.1-2h1.4l-1.2,1.9l-0.5,0.4l0.5,0.4l1.4,2.3
			h-1.5L373.2,36.9z"/>
		<path id="XMLID_678_" class="st3" d="M376.5,32c0.1,0,0.3,0,0.5,0c0.2,0,0.4,0,0.5,0c0.2,0,0.4,0,0.5,0c0.2,0,0.3,0,0.5,0
			c0.6,0,1.2,0.1,1.6,0.3c0.4,0.2,0.8,0.4,1.1,0.7s0.5,0.7,0.6,1.1c0.1,0.4,0.2,0.9,0.2,1.4c0,0.5-0.1,0.9-0.2,1.4s-0.3,0.8-0.6,1.2
			c-0.3,0.3-0.6,0.6-1.1,0.8c-0.5,0.2-1,0.3-1.7,0.3c-0.1,0-0.2,0-0.4,0c-0.2,0-0.4,0-0.5,0c-0.2,0-0.4,0-0.5,0c-0.2,0-0.3,0-0.4,0
			V32z M378.6,33.1c-0.1,0-0.3,0-0.4,0c-0.2,0-0.3,0-0.3,0v4.7c0,0,0.1,0,0.1,0c0.1,0,0.1,0,0.2,0c0.1,0,0.1,0,0.2,0
			c0.1,0,0.1,0,0.1,0c0.4,0,0.7-0.1,1-0.2s0.5-0.3,0.6-0.5s0.3-0.5,0.3-0.8c0.1-0.3,0.1-0.6,0.1-0.9c0-0.3,0-0.5-0.1-0.8
			c-0.1-0.3-0.2-0.5-0.3-0.7c-0.1-0.2-0.3-0.4-0.6-0.5C379.3,33.2,379,33.1,378.6,33.1z"/>
		<path id="XMLID_681_" class="st3" d="M382.8,32.6c0-0.2,0.1-0.4,0.2-0.5c0.1-0.1,0.3-0.2,0.6-0.2s0.5,0.1,0.6,0.2s0.2,0.3,0.2,0.5
			s-0.1,0.4-0.2,0.5c-0.2,0.1-0.4,0.2-0.6,0.2s-0.5-0.1-0.6-0.2C382.9,32.9,382.8,32.8,382.8,32.6z M383,34h1.3v5H383V34z"/>
		<path id="XMLID_684_" class="st3" d="M385.3,37.9l2-2.4l0.5-0.4h-2.5V34h3.9v1.1l-2,2.4l-0.5,0.4h2.5V39h-3.9V37.9z"/>
		<path id="XMLID_686_" class="st3" d="M390.1,32.6c0-0.2,0.1-0.4,0.2-0.5c0.1-0.1,0.3-0.2,0.6-0.2c0.3,0,0.5,0.1,0.6,0.2
			c0.2,0.1,0.2,0.3,0.2,0.5s-0.1,0.4-0.2,0.5c-0.2,0.1-0.4,0.2-0.6,0.2c-0.3,0-0.5-0.1-0.6-0.2C390.2,32.9,390.1,32.8,390.1,32.6z
			 M390.3,34h1.3v5h-1.3V34z"/>
		<path id="XMLID_689_" class="st3" d="M392.9,32h2.3v1.1h-1.1v7.1h1.1v1.1h-2.3V32z"/>
		<path id="XMLID_691_" class="st3" d="M397.9,38c0.4,0,0.7-0.1,0.9-0.3c0.2-0.2,0.3-0.5,0.3-0.8c0-0.4-0.1-0.7-0.3-0.8
			c-0.2-0.2-0.6-0.3-1.1-0.3h-0.7v-0.7l1.2-1.6l0.6-0.5l-0.8,0.1h-1.7V32h3.8v0.7l-1.4,1.9l-0.4,0.3v0l0.4-0.1
			c0.2,0,0.5,0.1,0.7,0.2c0.2,0.1,0.4,0.2,0.5,0.4c0.2,0.2,0.3,0.4,0.4,0.6c0.1,0.2,0.1,0.5,0.1,0.8c0,0.4-0.1,0.7-0.2,1
			c-0.1,0.3-0.3,0.5-0.5,0.7c-0.2,0.2-0.5,0.3-0.8,0.4s-0.6,0.1-1,0.1c-0.3,0-0.6,0-0.9-0.1c-0.3-0.1-0.6-0.1-0.8-0.2l0.4-1.1
			c0.2,0.1,0.4,0.2,0.6,0.2C397.5,38,397.7,38,397.9,38z"/>
		<path id="XMLID_693_" class="st3" d="M403.8,41.3h-2.3v-1.1h1.1v-7.1h-1.1V32h2.3V41.3z"/>
	</g>
	<g id="XMLID_296_">
		<path id="XMLID_297_" class="st4" d="M40.7,72.4l0.3,2.1h0.1l0.4-2.2l2.4-7.4h2.6l-4.7,12.7h-1.8L35.3,65h2.9L40.7,72.4z"/>
		<path id="XMLID_645_" class="st4" d="M52.4,74.8h-3.9l-1,2.8h-2.5l4.5-12.7h1.8L56,77.6h-2.6L52.4,74.8z M49.2,72.8h2.7L50.9,70
			l-0.4-2h-0.1l-0.4,2L49.2,72.8z"/>
		<path id="XMLID_648_" class="st4" d="M65.1,77.6h-8V65h2.5v10.4h5.5V77.6z"/>
		<path id="XMLID_650_" class="st4" d="M73.2,65h2.3v8.1c0,0.8-0.1,1.5-0.3,2.1s-0.5,1.1-0.9,1.5c-0.4,0.4-0.9,0.7-1.4,0.8
			c-0.6,0.2-1.2,0.3-1.8,0.3c-3.2,0-4.8-1.5-4.8-4.4V65h2.5v8c0,0.5,0,0.9,0.1,1.3s0.2,0.6,0.4,0.8s0.4,0.4,0.7,0.4
			c0.3,0.1,0.6,0.1,1,0.1c0.8,0,1.3-0.2,1.6-0.6s0.5-1.1,0.5-2V65z"/>
		<path id="XMLID_652_" class="st4" d="M77.6,65h7.5v2.2h-5v2.9h4.6v2.2h-4.6v3.1h5.1v2.2h-7.6V65z"/>
	</g>
	<rect id="XMLID_471_" x="92.3" y="36" class="st2" width="15.3" height="4.7"/>
	<polygon id="XMLID_480_" class="st2" points="110.8,38.5 104.5,44.9 104.4,32.1 	"/>
	<rect id="XMLID_474_" x="92.3" y="69" class="st5" width="15.3" height="4.7"/>
	<polygon id="XMLID_473_" class="st5" points="110.8,71.5 104.5,77.9 104.4,65.1 	"/>
	<line id="XMLID_478_" class="st6" x1="104.4" y1="44.9" x2="104.4" y2="32.1"/>
</g>
</svg>
